<svg width="159" height="164" viewBox="0 0 159 164" fill="none" xmlns="http://www.w3.org/2000/svg">
<path d="M20.2064 147.111C20.0333 147.118 19.8619 147.073 19.7154 146.98C19.569 146.887 19.4546 146.752 19.3877 146.592C19.3209 146.432 19.3048 146.255 19.3416 146.085C19.3785 145.916 19.4665 145.761 19.5938 145.644L19.6517 145.413C19.6441 145.395 19.6364 145.376 19.6287 145.358C19.4543 144.945 19.162 144.594 18.7886 144.347C18.4152 144.1 17.9773 143.97 17.5299 143.971C17.0825 143.973 16.6456 144.107 16.2741 144.356C15.9025 144.606 15.6128 144.96 15.4415 145.373C14.7566 147.025 13.8847 148.679 13.67 150.425C13.5755 151.197 13.6154 151.979 13.7879 152.737C12.1794 149.224 11.3442 145.406 11.3388 141.542C11.3385 140.572 11.3923 139.603 11.5 138.639C11.589 137.849 11.7125 137.065 11.8705 136.286C12.7326 132.06 14.5836 128.1 17.2715 124.729C18.5725 124.019 19.6245 122.926 20.286 121.598C20.5256 121.121 20.695 120.611 20.7888 120.085C20.6421 120.105 20.2355 117.867 20.3462 117.73C20.1417 117.419 19.7756 117.265 19.5523 116.961C18.4414 115.454 16.9109 115.717 16.1119 117.766C14.4051 118.628 14.3886 120.059 15.4359 121.434C16.1022 122.309 16.1937 123.494 16.7784 124.431C16.7182 124.508 16.6556 124.582 16.5955 124.66C15.496 126.075 14.5378 127.595 13.7345 129.197C13.9298 127.402 13.6966 125.586 13.0542 123.898C12.403 122.326 11.1825 121.001 10.1077 119.641C8.81664 118.008 6.16929 118.721 5.94184 120.791C5.93963 120.811 5.93748 120.831 5.93539 120.851C6.09503 120.942 6.2513 121.037 6.40421 121.139C6.5963 121.267 6.74514 121.451 6.83123 121.665C6.91732 121.88 6.93665 122.116 6.88668 122.341C6.83671 122.567 6.71978 122.773 6.5512 122.931C6.38262 123.089 6.17025 123.192 5.94193 123.228L5.91856 123.231C5.97543 123.807 6.07595 124.378 6.21927 124.939C4.84042 130.278 7.81726 132.222 12.0678 132.309C12.1616 132.358 12.253 132.406 12.3469 132.452C11.5398 134.742 11.0335 137.127 10.8408 139.547C10.7318 140.976 10.7382 142.41 10.8601 143.837L10.8529 143.787C10.5449 142.2 9.69938 140.768 8.45908 139.733C6.61694 138.218 4.01433 137.66 2.02697 136.442C1.81577 136.306 1.57019 136.234 1.3192 136.233C1.0682 136.233 0.822272 136.304 0.610406 136.439C0.398539 136.573 0.22958 136.766 0.123447 136.994C0.0173136 137.221 -0.0215654 137.475 0.0114012 137.724C0.0140668 137.742 0.0167791 137.759 0.0195331 137.777C0.315789 137.898 0.604236 138.037 0.883206 138.194C1.04285 138.284 1.19913 138.38 1.35203 138.481C1.54411 138.609 1.69295 138.793 1.77904 139.008C1.86513 139.222 1.88445 139.458 1.83448 139.684C1.78451 139.91 1.66759 140.115 1.49901 140.273C1.33043 140.431 1.11806 140.535 0.889748 140.57L0.866345 140.574C0.849511 140.576 0.835077 140.578 0.818261 140.581C1.32445 141.791 2.0349 142.905 2.91851 143.873C3.78067 148.534 7.48365 148.976 11.4447 147.619H11.4471C11.8817 149.51 12.5114 151.35 13.326 153.111H20.0382C20.0623 153.036 20.0839 152.959 20.1056 152.884C19.4843 152.923 18.8606 152.886 18.2483 152.773C18.7463 152.162 19.2443 151.545 19.7423 150.933C19.7534 150.922 19.7639 150.91 19.7736 150.897C20.0262 150.584 20.2812 150.273 20.5338 149.96L20.534 149.96C20.5474 149 20.4374 148.042 20.2066 147.111L20.2064 147.111Z" fill="#D0DBFF"/>
<path d="M130.582 147.111C130.756 147.118 130.927 147.073 131.073 146.98C131.22 146.887 131.334 146.752 131.401 146.592C131.468 146.432 131.484 146.255 131.447 146.085C131.41 145.916 131.322 145.761 131.195 145.644L131.137 145.413C131.145 145.395 131.152 145.376 131.16 145.358C131.335 144.945 131.627 144.594 132 144.347C132.374 144.1 132.812 143.97 133.259 143.971C133.706 143.973 134.143 144.107 134.515 144.356C134.886 144.606 135.176 144.96 135.347 145.373C136.032 147.025 136.904 148.679 137.119 150.425C137.213 151.197 137.173 151.979 137.001 152.737C138.609 149.224 139.445 145.406 139.45 141.542C139.45 140.572 139.397 139.603 139.289 138.639C139.2 137.849 139.076 137.065 138.918 136.286C138.056 132.06 136.205 128.1 133.517 124.729C132.216 124.019 131.164 122.926 130.503 121.598C130.263 121.121 130.094 120.611 130 120.085C130.147 120.105 130.553 117.867 130.443 117.73C130.647 117.419 131.013 117.265 131.237 116.961C132.347 115.454 133.878 115.717 134.677 117.766C136.384 118.628 136.4 120.059 135.353 121.434C134.687 122.309 134.595 123.494 134.01 124.431C134.071 124.508 134.133 124.582 134.193 124.66C135.293 126.075 136.251 127.595 137.054 129.197C136.859 127.402 137.092 125.586 137.735 123.898C138.386 122.326 139.606 121.001 140.681 119.641C141.972 118.008 144.62 118.721 144.847 120.791C144.849 120.811 144.851 120.831 144.853 120.851C144.694 120.942 144.538 121.037 144.385 121.139C144.193 121.267 144.044 121.451 143.958 121.665C143.872 121.88 143.852 122.116 143.902 122.341C143.952 122.567 144.069 122.773 144.238 122.931C144.406 123.089 144.619 123.192 144.847 123.228L144.87 123.231C144.813 123.807 144.713 124.378 144.57 124.939C145.948 130.278 142.972 132.222 138.721 132.309C138.627 132.358 138.536 132.406 138.442 132.452C139.249 134.742 139.755 137.127 139.948 139.547C140.057 140.976 140.051 142.41 139.929 143.837L139.936 143.787C140.244 142.2 141.089 140.768 142.33 139.733C144.172 138.218 146.775 137.66 148.762 136.442C148.973 136.306 149.219 136.234 149.47 136.233C149.721 136.233 149.967 136.304 150.178 136.439C150.39 136.573 150.559 136.766 150.665 136.994C150.772 137.221 150.81 137.475 150.777 137.724C150.775 137.742 150.772 137.759 150.769 137.777C150.473 137.898 150.185 138.037 149.906 138.194C149.746 138.284 149.59 138.38 149.437 138.481C149.245 138.609 149.096 138.793 149.01 139.008C148.924 139.222 148.904 139.458 148.954 139.684C149.004 139.91 149.121 140.115 149.29 140.273C149.458 140.431 149.671 140.535 149.899 140.57L149.923 140.574C149.939 140.576 149.954 140.578 149.971 140.581C149.464 141.791 148.754 142.905 147.87 143.873C147.008 148.534 143.305 148.976 139.344 147.619H139.342C138.907 149.51 138.277 151.35 137.463 153.111H130.751C130.727 153.036 130.705 152.959 130.683 152.884C131.305 152.923 131.928 152.886 132.541 152.773C132.043 152.162 131.545 151.545 131.047 150.933C131.035 150.922 131.025 150.91 131.015 150.897C130.763 150.584 130.508 150.273 130.255 149.96L130.255 149.96C130.241 149 130.351 148.042 130.582 147.111L130.582 147.111Z" fill="#D0DBFF"/>
<path d="M12.1198 141.181L20.6338 142.782C23.2422 136.927 24.5172 122.169 27.5496 116.609C33.3662 105.95 40.3223 94.8562 50.1447 90.964C54.3386 89.302 58.6001 89.1461 62.7651 89.9813C68.5189 91.1338 74.0839 94.1836 79.0297 97.7687C81.0533 99.2329 83.0371 100.798 85.0074 102.386C92.4299 108.373 99.6883 114.739 108.322 117.714C119.246 121.477 133.637 117.677 139.251 104.719C143.541 94.796 141.346 83.2446 138.662 73.158C135.979 63.0714 132.896 52.2394 135.718 41.676C135.728 41.6405 135.738 41.6015 135.751 41.5666C136.778 37.775 139.136 35.3547 142.038 34.0641L130.857 31.9622C128.831 41.9303 131.798 51.6233 134.323 61.1178C137.007 71.2008 139.202 82.7558 134.911 92.6783C129.299 105.633 106.871 84.994 95.9471 81.2271C92.8615 80.1666 97.5911 82.7651 94.7891 81.0094C90.3939 78.2577 86.6612 95.215 82.5145 91.8434C79.9334 89.7419 77.3473 87.6506 74.6911 85.7249C73.5914 84.926 72.4589 84.1582 71.3046 83.4273C71.3017 83.4267 71.3017 83.4267 71.2994 83.4226C63.545 78.5311 54.6254 75.5172 45.9829 78.8566C45.9247 78.8792 45.8636 78.9012 45.8054 78.9238C35.9837 82.8123 29.0276 93.9058 23.211 104.565C18.4041 113.378 15.4804 131.564 12.1198 141.181Z" fill="#FFEBCC"/>
<rect x="68.2405" y="3.99976" width="41.5123" height="41.5123" rx="20.7561" transform="rotate(29.1816 68.2405 3.99976)" fill="white"/>
<path d="M72.5511 36.6687C74.2322 37.5996 77.908 39.6345 79.1687 37.2777C80.4604 34.8689 76.8571 33.0449 75.1004 32.1569C74.9044 32.0574 74.7296 31.9696 74.5898 31.8936L72.1492 36.4482C72.2642 36.5084 72.4001 36.5843 72.5511 36.6687V36.6687ZM76.044 29.9955C77.4448 30.7758 80.5015 32.4789 81.6502 30.3369C82.8228 28.1449 79.8169 26.6346 78.3484 25.8977C78.1825 25.815 78.0387 25.7426 77.9201 25.6783L75.7064 29.8089L76.044 29.9955Z" fill="#FFBE55"/>
<path fill-rule="evenodd" clip-rule="evenodd" d="M62.0389 47.3723C70.3972 55.2158 83.5314 54.7986 91.3732 46.4433C99.2159 38.0864 98.7971 24.9515 90.438 17.1094C82.0865 9.26777 68.9515 9.68654 61.1095 18.0457C53.2677 26.401 53.6849 39.5351 62.0396 47.3746L62.0389 47.3723ZM82.8593 25.2809C85.4035 26.9474 87.0782 28.9009 86.0018 31.4775C85.2171 33.3651 83.8892 34.0401 82.3636 34.0083C84.0839 35.5396 84.6931 37.3755 83.0394 39.8754C80.9873 42.9789 78.0822 42.5511 74.4987 40.8867L72.6585 44.3165L70.5897 43.2107L72.403 39.8253C71.8679 39.5383 71.3209 39.2408 70.7593 38.9232L68.939 42.3245L66.871 41.2172L68.7115 37.7796L68.1306 37.4611C67.8368 37.299 67.54 37.1352 67.2406 36.976L64.5484 35.5319L66.2819 33.2827C66.2819 33.2827 67.7998 34.1264 67.7853 34.0885C68.3719 34.4003 68.752 34.0638 68.9305 33.8188L71.8382 28.3957L71.9863 28.4745L72.0558 28.5133C71.9882 28.4647 71.9176 28.4206 71.8442 28.3813L73.9199 24.5084C74.0649 24.0466 74.0536 23.4142 73.2161 22.9663C73.2556 22.9487 71.7127 22.1604 71.7127 22.1604L72.8946 19.9518L75.7486 21.4822L75.7427 21.4928C76.1713 21.7222 76.6161 21.9509 77.0679 22.1813L78.8903 18.7832L80.9575 19.892L79.173 23.2222C79.7306 23.5079 80.2921 23.7937 80.8363 24.0858L82.609 20.7767L84.6785 21.8849L82.8576 25.2839L82.8593 25.2809Z" fill="#FFBE55"/>
<ellipse cx="83.9997" cy="154.671" rx="74.9997" ry="5.85935" fill="#CFCFCF"/>
<path d="M20.3134 144.306C23.6907 150.611 30.8585 153.317 30.8585 153.317C30.8585 153.317 32.5506 145.802 29.1733 139.497C25.7961 133.192 18.6283 130.485 18.6283 130.485C18.6283 130.485 16.9361 138.001 20.3134 144.306Z" fill="#111111"/>
<path d="M22.6349 142.232C28.7322 145.925 31.0805 153.26 31.0805 153.26C31.0805 153.26 23.543 154.607 17.4457 150.915C11.3483 147.222 9 139.887 9 139.887C9 139.887 16.5375 138.539 22.6349 142.232Z" fill="#699CFF"/>
<path d="M107.385 141.419H43.0414V140.953H106.922V118.353H48.4506L45.6101 112.396L46.0275 112.194L48.7419 117.887H107.385V141.419Z" fill="#111111"/>
<path d="M51.6051 152.835C54.2895 152.835 56.4656 150.645 56.4656 147.942C56.4656 145.24 54.2895 143.05 51.6051 143.05C48.9208 143.05 46.7446 145.24 46.7446 147.942C46.7446 150.645 48.9208 152.835 51.6051 152.835Z" fill="#111111"/>
<path d="M99.5168 152.835C102.201 152.835 104.377 150.645 104.377 147.942C104.377 145.24 102.201 143.05 99.5168 143.05C96.8324 143.05 94.6562 145.24 94.6562 147.942C94.6562 150.645 96.8324 152.835 99.5168 152.835Z" fill="#111111"/>
<path d="M155.991 47.0575C157.653 47.0575 159 45.7015 159 44.0286C159 42.3558 157.653 40.9998 155.991 40.9998C154.33 40.9998 152.982 42.3558 152.982 44.0286C152.982 45.7015 154.33 47.0575 155.991 47.0575Z" fill="#111111"/>
<path d="M114.267 110.664H41.9441L26.2952 59.1729H130.383L130.288 59.4758L114.267 110.664ZM42.2865 110.198H113.927L129.752 59.6388H26.9208L42.2865 110.198Z" fill="#111111"/>
<path d="M108.621 107.984H45.0976L31.3525 62.3181H122.776L122.693 62.587L108.621 107.984Z" fill="#F2F2F2"/>
<path d="M131.68 54.5729L131.233 54.4533L134.287 42.8635H152.056V43.3296H134.644L131.68 54.5729Z" fill="#111111"/>
<path d="M125.182 74.7832H31.3525V75.2492H125.182V74.7832Z" fill="#111111"/>
<path d="M119.809 91.9514H36.5707V92.4174H119.809V91.9514Z" fill="#111111"/>
<path d="M78.5685 59.4058H78.1056V110.431H78.5685V59.4058Z" fill="#111111"/>
<path d="M99.2942 59.3914L95.9713 110.415L96.4333 110.446L99.7562 59.4219L99.2942 59.3914Z" fill="#111111"/>
<path d="M57.3907 59.3908L56.9287 59.4211L60.2323 110.446L60.6943 110.416L57.3907 59.3908Z" fill="#111111"/>
<path d="M126.778 45.2739C126.218 50.061 124.986 54.7473 123.119 59.1945C123.077 59.2978 123.032 59.3993 122.988 59.5024L114.072 58.7257C114.09 58.6314 114.109 58.526 114.129 58.4113C115.337 51.6332 115.632 10.2638 112.173 2.79804C112.48 3.40597 129.419 23.6323 126.778 45.2739Z" fill="#D0DBFF"/>
<path d="M124.839 59.3446C124.755 59.4443 124.668 59.5437 124.579 59.6414L117.891 59.0587C117.95 58.9727 118.018 58.8717 118.097 58.7573C119.381 56.8606 123.186 51.1868 126.777 45.2741C130.635 38.9199 134.248 32.2908 134.22 29.7751C134.248 30.3441 134.964 47.6863 124.839 59.3446Z" fill="#D0DBFF"/>
<path d="M23.381 43.6766C23.938 48.6885 25.2071 53.6639 27.1509 58.4561C27.1944 58.5673 27.2416 58.6769 27.2878 58.7881L36.7322 58.8859C36.714 58.7864 36.6944 58.6754 36.6743 58.5547C35.4458 51.4163 35.4416 8.56439 39.1592 1.18634C38.8295 1.78455 20.7457 21.0079 23.381 43.6766Z" fill="#D0DBFF"/>
<path d="M25.3287 58.4375C25.417 58.5492 25.5084 58.6609 25.6017 58.771L32.6872 58.8443C32.6256 58.7494 32.554 58.6379 32.4713 58.5115C31.1261 56.4184 27.1392 50.1604 23.3818 43.6769C19.3452 36.7094 15.5691 29.4821 15.6175 26.8809C15.584 27.467 14.696 45.3457 25.3287 58.4375Z" fill="#D0DBFF"/>
<path d="M15.5 91.9998C13.8189 91.9998 12.1755 91.5012 10.7777 90.5672C9.37984 89.6333 8.29037 88.3057 7.64703 86.7526C7.00368 85.1994 6.83535 83.4903 7.16333 81.8415C7.4913 80.1927 8.30085 78.6781 9.48959 77.4894C10.6783 76.3006 12.1929 75.4911 13.8417 75.1631C15.4906 74.8351 17.1996 75.0034 18.7528 75.6468C20.306 76.2901 21.6335 77.3796 22.5675 78.7774C23.5015 80.1752 24 81.8186 24 83.4998C23.9975 85.7533 23.1011 87.9138 21.5076 89.5073C19.9141 91.1009 17.7536 91.9972 15.5 91.9998V91.9998ZM15.5 75.2929C13.8768 75.2929 12.2901 75.7742 10.9405 76.676C9.59088 77.5778 8.53898 78.8595 7.91782 80.3591C7.29666 81.8587 7.13413 83.5089 7.4508 85.1008C7.76746 86.6928 8.5491 88.1552 9.69686 89.3029C10.8446 90.4507 12.3069 91.2323 13.8989 91.549C15.4909 91.8656 17.141 91.7031 18.6406 91.0819C20.1403 90.4608 21.422 89.4089 22.3238 88.0593C23.2256 86.7096 23.7069 85.1229 23.7069 83.4998C23.7044 81.3239 22.839 79.2379 21.3004 77.6993C19.7619 76.1608 17.6758 75.2953 15.5 75.2929Z" fill="#111111"/>
<path d="M14.523 86.9998C14.2895 87.0002 14.0622 86.9237 13.8753 86.7817L13.8638 86.7729L11.4246 84.8802C11.3116 84.7925 11.2168 84.6831 11.1456 84.5583C11.0743 84.4334 11.028 84.2956 11.0094 84.1526C10.9907 84.0096 11 83.8643 11.0367 83.725C11.0735 83.5856 11.1369 83.455 11.2235 83.3405C11.31 83.226 11.418 83.1299 11.5412 83.0577C11.6644 82.9855 11.8004 82.9386 11.9415 82.9197C12.0825 82.9008 12.2259 82.9102 12.3634 82.9474C12.5009 82.9846 12.6298 83.049 12.7428 83.1367L14.3227 84.3644L18.0563 79.4297C18.1428 79.3153 18.2508 79.2192 18.3741 79.1471C18.4973 79.0749 18.6333 79.0281 18.7744 79.0092C18.9155 78.9903 19.0589 78.9998 19.1963 79.0371C19.3338 79.0744 19.4627 79.1387 19.5756 79.2265L19.5524 79.2584L19.5762 79.227C19.804 79.4044 19.9531 79.6662 19.9907 79.9548C20.0283 80.2435 19.9513 80.5355 19.7768 80.7668L15.3852 86.5711C15.2836 86.7049 15.153 86.8131 15.0035 86.8875C14.854 86.9618 14.6896 87.0002 14.523 86.9998V86.9998Z" fill="#699CFF"/>
</svg>
