<svg width="105" height="105" viewBox="0 0 105 105" fill="none" xmlns="http://www.w3.org/2000/svg">
<rect x="37.493" width="76.8961" height="76.8961" rx="38.448" transform="rotate(29.1816 37.493 0)" fill="white"/>
<path d="M45.4776 60.515C48.5917 62.2394 55.4005 66.0088 57.7358 61.6432C60.1285 57.1812 53.4539 53.8023 50.1999 52.1575C49.8368 51.9731 49.5129 51.8106 49.254 51.6697L44.7331 60.1066C44.9461 60.2181 45.1978 60.3587 45.4776 60.515V60.515ZM51.9478 48.1538C54.5425 49.5991 60.2046 52.7539 62.3324 48.7861C64.5045 44.7257 58.9365 41.9281 56.2162 40.5631C55.9091 40.4099 55.6427 40.2758 55.4229 40.1568L51.3224 47.8082L51.9478 48.1538Z" fill="#FFBE55"/>
<path fill-rule="evenodd" clip-rule="evenodd" d="M26.0052 80.3418C41.4879 94.8709 65.8172 94.098 80.3432 78.6209C94.8707 63.141 94.095 38.8102 78.6107 24.2838C63.1408 9.75815 38.81 10.5339 24.2836 26.0182C9.75763 41.4953 10.5306 65.8245 26.0064 80.3462L26.0052 80.3418ZM64.5722 39.4203C69.285 42.5073 72.3872 46.126 70.3933 50.8988C68.9397 54.3954 66.48 55.6456 63.6541 55.5868C66.8407 58.4233 67.9691 61.8241 64.9059 66.4548C61.1046 72.2036 55.7232 71.4112 49.0853 68.328L45.6766 74.6814L41.8444 72.633L45.2034 66.362C44.2121 65.8304 43.1988 65.2792 42.1586 64.6909L38.7867 70.9915L34.956 68.9403L38.3654 62.5725L37.2893 61.9826C36.745 61.6823 36.1952 61.379 35.6407 61.0839L30.6537 58.409L33.8649 54.2426C33.8649 54.2426 36.6765 55.8055 36.6496 55.7354C37.7363 56.3129 38.4404 55.6896 38.7709 55.2356L44.1571 45.1902L44.4315 45.3361L44.5602 45.408C44.4351 45.318 44.3042 45.2363 44.1683 45.1634L48.0133 37.9894C48.2818 37.1339 48.2608 35.9625 46.7094 35.1328C46.7826 35.1003 43.9247 33.6401 43.9247 33.6401L46.114 29.5489L51.4007 32.3838L51.3897 32.4034C52.1836 32.8284 53.0076 33.2519 53.8444 33.6789L57.2203 27.3842L61.0494 29.4382L57.7439 35.607C58.7768 36.1361 59.8169 36.6656 60.825 37.2066L64.1086 31.0769L67.9421 33.1297L64.5691 39.4259L64.5722 39.4203Z" fill="#FFBE55"/>
</svg>
