<svg width="152" height="130" viewBox="0 0 152 130" fill="none" xmlns="http://www.w3.org/2000/svg">
<path d="M44.4039 128.492C46.8295 126.435 48.3028 123.184 47.9164 120.02C47.53 116.856 45.1369 113.947 42.0328 113.275C38.9286 112.603 35.39 114.463 34.4472 117.507C33.9283 111.638 33.3304 105.523 30.2222 100.525C27.4077 95.9995 22.5331 92.7613 17.2502 92.1819C11.9672 91.6026 6.40488 93.7907 3.11008 97.9767C-0.184724 102.163 -0.991441 108.248 1.31615 113.054C3.01607 116.595 6.14793 119.23 9.42933 121.373C20.0327 128.241 32.7501 131.034 45.2416 129.238" fill="#F2F2F2"/>
<path d="M8.33443 93.9119C12.6935 97.4763 16.6926 101.463 20.2737 105.814C25.8781 112.6 30.4132 120.208 33.7211 128.374C33.9632 128.969 32.9997 129.229 32.7603 128.64C30.6567 123.477 28.0542 118.534 24.99 113.881C20.2118 106.612 14.3578 100.117 7.62984 94.6193C7.13239 94.2126 7.84109 93.5086 8.33443 93.9119V93.9119Z" fill="white"/>
<path d="M46.0793 128.492C43.6538 126.435 42.1805 123.184 42.5669 120.02C42.9533 116.856 45.3463 113.947 48.4505 113.275C51.5547 112.603 55.0933 114.463 56.0361 117.507C56.555 111.638 57.1529 105.523 60.2611 100.525C63.0755 95.9995 67.9502 92.7613 73.2331 92.1819C78.5161 91.6026 84.0784 93.7907 87.3732 97.9767C90.668 102.163 91.4747 108.248 89.1671 113.054C87.4672 116.595 84.3354 119.23 81.054 121.373C70.4506 128.241 57.7332 131.034 45.2417 129.238" fill="#F2F2F2"/>
<path d="M82.1488 93.9119C77.7896 97.4763 73.7906 101.463 70.2095 105.814C64.6051 112.6 60.07 120.208 56.7621 128.374C56.52 128.969 57.4835 129.229 57.7229 128.64C63.1352 115.369 71.7754 103.672 82.8534 94.6193C83.3508 94.2126 82.6421 93.5086 82.1488 93.9119V93.9119Z" fill="white"/>
<path d="M53.2772 58.4114C57.7644 58.4114 61.402 54.7596 61.402 50.2548C61.402 45.7501 57.7644 42.0983 53.2772 42.0983C48.7899 42.0983 45.1523 45.7501 45.1523 50.2548C45.1523 54.7596 48.7899 58.4114 53.2772 58.4114Z" fill="#F2F2F2"/>
<path d="M28.2258 22.1379H84.2035V25.2125H35.3718C32.5007 25.2125 29.6577 25.7802 27.0051 26.8832C24.3526 27.9863 21.9424 29.603 19.9122 31.6411C17.882 33.6792 16.2716 36.0988 15.1728 38.7617C14.0741 41.4247 13.5086 44.2788 13.5086 47.1611V82.0918H7.38341C7.11267 82.0918 6.85301 81.9838 6.66156 81.7916C6.47011 81.5994 6.36255 81.3388 6.36255 81.067V44.0865C6.36255 41.2042 6.92806 38.3501 8.02679 35.6872C9.12552 33.0242 10.736 30.6046 12.7661 28.5665C14.7963 26.5284 17.2065 24.9117 19.8591 23.8087C22.5117 22.7056 25.3547 22.1379 28.2258 22.1379Z" fill="#F2F2F2"/>
<path d="M38.9929 128.663V81.9602H52.6216V128.663C52.6213 128.977 52.4969 129.278 52.2758 129.5C52.0547 129.722 51.7549 129.847 51.4422 129.847H40.1723C39.8596 129.847 39.5599 129.722 39.3388 129.5C39.1176 129.278 38.9933 128.977 38.9929 128.663Z" fill="#111111"/>
<path d="M3.47949 81.0395V43.063C3.48629 37.0174 5.88157 31.2214 10.1398 26.9465C14.3981 22.6716 20.1716 20.2669 26.1937 20.2601H83.9413V82.3551H4.78995C4.44251 82.3547 4.10943 82.216 3.86376 81.9693C3.61809 81.7227 3.47989 81.3883 3.47949 81.0395ZM83.4172 20.7863H26.1937C20.3105 20.793 14.6703 23.1422 10.5103 27.3184C6.35032 31.4947 4.01032 37.1569 4.00367 43.063V81.0395C4.0039 81.2488 4.08681 81.4494 4.23422 81.5974C4.38162 81.7454 4.58148 81.8286 4.78995 81.8289H83.4172V20.7863Z" fill="#111111"/>
<path d="M53.2769 54.4647C52.0262 54.4633 50.827 53.9639 49.9426 53.076C49.0582 52.1881 48.5607 50.9843 48.5593 49.7286V15.7869C48.5591 15.5776 48.4761 15.377 48.3287 15.229C48.1813 15.081 47.9815 14.9978 47.773 14.9975H29.4267C29.0792 14.9971 28.7462 14.8584 28.5005 14.6118C28.2548 14.3651 28.1166 14.0307 28.1162 13.682V1.31557C28.1166 0.966785 28.2548 0.632397 28.5005 0.385767C28.7462 0.139137 29.0792 0.000403891 29.4267 0H56.6841C57.0315 0.000399027 57.3646 0.139132 57.6103 0.385763C57.856 0.632394 57.9942 0.966784 57.9946 1.31557V49.7286C57.9932 50.9843 57.4957 52.1881 56.6112 53.076C55.7268 53.9639 54.5277 54.4633 53.2769 54.4647Z" fill="#699CFF"/>
<path d="M86.0383 19.7336C89.9921 19.7253 93.7873 21.2941 96.5889 24.0949C99.3906 26.8957 100.969 30.6991 100.977 34.6684V77.9006H130.332C131.511 77.8981 132.643 78.366 133.478 79.2014C134.314 80.0367 134.785 81.171 134.787 82.3548H71.0991V34.6684C71.1074 30.6991 72.686 26.8957 75.4877 24.0949C78.2893 21.2941 82.0845 19.7253 86.0383 19.7336Z" fill="#111111"/>
<path d="M82.4535 44.3528L85.5469 57.1812L146.059 42.4753L142.965 29.6469C142.928 29.4901 142.852 29.3452 142.744 29.2259C142.636 29.1065 142.499 29.0165 142.347 28.9641C142.235 28.9245 142.117 28.9066 141.998 28.9113L107.019 10.7296C106.814 10.6245 106.579 10.5964 106.355 10.6504C106.131 10.7044 105.934 10.8369 105.799 11.0241L88.9413 34.6238L82.5862 43.5231C82.5746 43.5386 82.5666 43.5565 82.5626 43.5755C82.5585 43.5945 82.5586 43.6142 82.5628 43.6331C82.4335 43.8492 82.3942 44.1078 82.4535 44.3528Z" fill="white"/>
<path d="M82.5628 43.6331C82.5658 43.6498 82.572 43.6657 82.5812 43.68C82.5903 43.6942 82.6022 43.7066 82.616 43.7162C82.6325 43.7275 82.651 43.7353 82.6705 43.7392C82.6901 43.743 82.7102 43.7429 82.7296 43.7387C82.7613 43.7303 82.789 43.711 82.808 43.6842L82.8298 43.6538L83.1607 43.1893L89.1701 34.779L106.023 11.1847C106.119 11.051 106.26 10.9563 106.419 10.9179C106.579 10.8795 106.747 10.8998 106.893 10.9752L141.601 29.0161L141.912 29.1784C141.925 29.1837 141.938 29.1882 141.951 29.192C141.974 29.1877 141.998 29.1854 142.022 29.1851C142.055 29.1742 142.082 29.1511 142.098 29.1207C142.107 29.1047 142.112 29.0872 142.113 29.0691C142.115 29.0511 142.113 29.0329 142.108 29.0155C142.103 28.9982 142.094 28.9821 142.082 28.9682C142.071 28.9542 142.057 28.9427 142.041 28.9342L141.998 28.9113L107.019 10.7296C106.814 10.6245 106.579 10.5964 106.355 10.6504C106.131 10.7044 105.934 10.8369 105.799 11.0241L88.9413 34.6238L82.5861 43.5231C82.5746 43.5386 82.5665 43.5565 82.5625 43.5755C82.5585 43.5945 82.5586 43.6142 82.5628 43.6331Z" fill="#111111"/>
<path d="M100.736 44.941L102.083 45.091L112.08 46.2027L118.707 46.9393L119.099 46.983L127.368 40.4986L127.685 40.2502L129.638 38.7188L136.587 33.2707L136.629 32.888L139.101 10.4933C139.134 10.1849 139.045 9.87568 138.852 9.63344C138.659 9.39119 138.378 9.23567 138.071 9.20097L105.085 5.53269C104.778 5.49902 104.47 5.5889 104.229 5.78267C103.988 5.97644 103.833 6.2583 103.798 6.56652L102.055 22.3633L101.088 31.1213L100.223 38.9564L99.8222 42.5951L99.7052 43.649C99.6718 43.9575 99.7616 44.2667 99.9549 44.5089C100.148 44.751 100.429 44.9064 100.736 44.941Z" fill="#E6E6E6"/>
<path d="M109.801 25.3108L124.089 26.8995L129.156 27.4628C129.38 27.4877 129.606 27.4681 129.823 27.4051C130.039 27.3421 130.24 27.237 130.416 27.0958C130.592 26.9546 130.738 26.78 130.847 26.582C130.955 26.3841 131.024 26.1666 131.049 25.942C131.073 25.7174 131.054 25.4901 130.991 25.2731C130.928 25.0561 130.824 24.8536 130.683 24.6772C130.542 24.5008 130.368 24.3539 130.171 24.245C129.974 24.1361 129.757 24.0672 129.534 24.0423L123.231 23.3416L110.179 21.8887C109.727 21.8386 109.274 21.9707 108.919 22.2559C108.564 22.5412 108.337 22.9563 108.286 23.4099C108.236 23.8636 108.368 24.3187 108.652 24.6751C108.936 25.0316 109.349 25.2602 109.801 25.3108Z" fill="white"/>
<path d="M108.987 31.6561C109.024 31.6627 109.061 31.6693 109.099 31.6729L125.685 33.5176L128.454 33.8262C128.906 33.8764 129.36 33.7443 129.715 33.4589C130.07 33.1735 130.297 32.7583 130.347 32.3046C130.397 31.8508 130.266 31.3957 129.981 31.0393C129.697 30.683 129.283 30.4546 128.831 30.4044L124.827 29.9597L111.688 28.4981L109.477 28.2521C109.035 28.2026 108.591 28.3277 108.239 28.6008C107.887 28.874 107.655 29.2739 107.591 29.716C107.527 30.158 107.638 30.6076 107.898 30.9697C108.159 31.3317 108.549 31.5779 108.987 31.656V31.6561Z" fill="white"/>
<path d="M107.11 37.2827C107.246 37.5092 107.432 37.7013 107.654 37.8439C107.876 37.9865 108.127 38.0759 108.389 38.105L115.188 38.8609L127.295 40.2075L127.298 40.2069L127.685 40.2502L129.638 38.7188C129.651 38.6025 129.651 38.4852 129.639 38.3689C129.598 37.9782 129.425 37.6134 129.149 37.3348C128.873 37.0561 128.511 36.8804 128.122 36.8365L126.44 36.6489L119.768 35.9077L114.967 35.3732L108.766 34.6832C108.448 34.6479 108.127 34.7025 107.839 34.8409C107.55 34.9793 107.306 35.196 107.134 35.4664C106.961 35.7368 106.868 36.0502 106.864 36.3712C106.86 36.6921 106.945 37.0079 107.11 37.2827L107.11 37.2827Z" fill="white"/>
<path d="M116.659 17.555L120.214 17.9503L121.784 18.1253L124.156 18.3889C124.608 18.4391 125.061 18.3069 125.416 18.0216C125.771 17.7362 125.999 17.321 126.049 16.8672C126.099 16.4135 125.967 15.9583 125.683 15.602C125.399 15.2457 124.985 15.0173 124.533 14.9671L117.037 14.1342C116.586 14.0838 116.132 14.2156 115.777 14.5007C115.422 14.7858 115.195 15.2009 115.144 15.6545C115.094 16.1081 115.225 16.5632 115.509 16.9196C115.793 17.276 116.207 17.5046 116.659 17.555V17.555Z" fill="white"/>
<path d="M87.5888 27.0828L91.9231 45.0572L99.1571 46.438L105.849 47.717L113.028 49.0885L115.323 49.5267C115.457 49.5522 115.595 49.5487 115.728 49.5164C115.861 49.4841 115.985 49.4238 116.093 49.3395L117.933 47.8965L119.099 46.9829L127.368 40.4985L122.11 18.6933C122.058 18.4763 121.945 18.2791 121.784 18.1252C121.643 17.989 121.47 17.8907 121.281 17.8394C121.092 17.788 120.893 17.7852 120.703 17.8312L88.4475 25.6701C88.1472 25.7433 87.888 25.9332 87.727 26.1981C87.566 26.463 87.5163 26.7812 87.5888 27.0828Z" fill="#699CFF"/>
<path d="M97.5277 41.3822C97.635 41.8256 97.9132 42.2081 98.3012 42.4457C98.6892 42.6834 99.1552 42.7568 99.5971 42.6499L118.524 38.0502C118.965 37.9422 119.346 37.6629 119.583 37.2735C119.82 36.884 119.893 36.4162 119.787 35.9727C119.782 35.9507 119.776 35.929 119.768 35.9078C119.647 35.4801 119.366 35.1161 118.984 34.8918C118.602 34.6676 118.148 34.6007 117.717 34.705L98.7904 39.3047C98.3488 39.4124 97.9677 39.6917 97.731 40.0812C97.4942 40.4707 97.4211 40.9386 97.5277 41.3822Z" fill="white"/>
<path d="M99.1573 46.4381L105.849 47.7171L120.024 44.2722C120.466 44.1648 120.847 43.8856 121.084 43.496C121.321 43.1064 121.394 42.6383 121.287 42.1947C121.18 41.7511 120.902 41.3683 120.514 41.1306C120.126 40.8928 119.659 40.8196 119.217 40.927L100.291 45.5267C99.8952 45.622 99.5468 45.8564 99.3086 46.1875C99.2512 46.2666 99.2006 46.3504 99.1573 46.4381Z" fill="white"/>
<path d="M113.029 49.0884L115.323 49.5267C115.457 49.5521 115.595 49.5486 115.728 49.5163C115.861 49.4841 115.985 49.4237 116.093 49.3394L117.933 47.8964L113.029 49.0884Z" fill="white"/>
<path d="M101.341 31.744C101.449 32.1873 101.727 32.5699 102.115 32.8075C102.503 33.0452 102.969 33.1186 103.411 33.0116L110.741 31.2301C111.183 31.1221 111.564 30.8428 111.801 30.4534C112.037 30.0639 112.111 29.5961 112.004 29.1526C111.947 28.9142 111.839 28.6911 111.688 28.4984C111.486 28.238 111.212 28.0416 110.901 27.9328C110.591 27.824 110.255 27.8074 109.935 27.8849L102.604 29.6665C102.162 29.7739 101.781 30.0531 101.544 30.4427C101.307 30.8323 101.234 31.3004 101.341 31.7439V31.744Z" fill="white"/>
<path d="M105.849 47.7171L113.029 49.0888L115.323 49.5273C115.457 49.5525 115.595 49.5488 115.728 49.5165C115.86 49.4843 115.985 49.4242 116.093 49.3401L117.934 47.8967L117.288 48.0538L115.924 49.1223C115.847 49.1823 115.758 49.2253 115.663 49.2483C115.568 49.2714 115.47 49.274 115.374 49.256L113.676 48.9317L106.495 47.56L105.849 47.7171ZM127.297 40.208L127.367 40.4979L127.686 40.2493L127.297 40.208ZM105.849 47.7171L113.029 49.0888L115.323 49.5273C115.457 49.5525 115.595 49.5488 115.728 49.5165C115.86 49.4843 115.985 49.4242 116.093 49.3401L117.934 47.8967L117.288 48.0538L115.924 49.1223C115.847 49.1823 115.758 49.2253 115.663 49.2483C115.568 49.2714 115.47 49.274 115.374 49.256L113.676 48.9317L106.495 47.56L105.849 47.7171ZM105.849 47.7171L113.029 49.0888L115.323 49.5273C115.457 49.5525 115.595 49.5488 115.728 49.5165C115.86 49.4843 115.985 49.4242 116.093 49.3401L117.934 47.8967L117.288 48.0538L115.924 49.1223C115.847 49.1823 115.758 49.2253 115.663 49.2483C115.568 49.2714 115.47 49.274 115.374 49.256L113.676 48.9317L106.495 47.56L105.849 47.7171ZM82.4535 44.3527L90.5563 77.955C90.6164 78.2034 90.7722 78.4176 90.9895 78.5507C91.2068 78.6838 91.4678 78.7249 91.7153 78.665L150.361 64.4127C150.608 64.3523 150.822 64.1959 150.954 63.9778C151.087 63.7596 151.128 63.4976 151.068 63.2492L142.965 29.6468C142.928 29.4899 142.852 29.3451 142.744 29.2257C142.636 29.1063 142.499 29.0163 142.347 28.964C142.235 28.9244 142.117 28.9064 141.998 28.9111C141.859 28.9152 141.723 28.951 141.601 29.0159C141.544 29.0429 141.491 29.0762 141.442 29.1152L136.629 32.8881L129.639 38.3697L127.297 40.206L127.297 40.208L127.295 40.2085L118.708 46.9384L117.288 48.0538L115.924 49.1223C115.847 49.1823 115.758 49.2253 115.663 49.2483C115.568 49.2714 115.47 49.274 115.374 49.256L113.676 48.9317L106.495 47.56L99.3077 46.1877L83.5663 43.1803C83.4321 43.1536 83.2936 43.1566 83.1607 43.1891C82.9817 43.233 82.819 43.3277 82.692 43.4617C82.6434 43.5143 82.6001 43.5717 82.5628 43.633C82.4335 43.8491 82.3942 44.1077 82.4535 44.3527ZM105.849 47.7171L113.029 49.0888L115.323 49.5273C115.457 49.5525 115.595 49.5488 115.728 49.5165C115.86 49.4843 115.985 49.4242 116.093 49.3401L117.934 47.8967L117.288 48.0538L115.924 49.1223C115.847 49.1823 115.758 49.2253 115.663 49.2483C115.568 49.2714 115.47 49.274 115.374 49.256L113.676 48.9317L106.495 47.56L105.849 47.7171ZM105.849 47.7171L113.029 49.0888L115.323 49.5273C115.457 49.5525 115.595 49.5488 115.728 49.5165C115.86 49.4843 115.985 49.4242 116.093 49.3401L117.934 47.8967L117.288 48.0538L115.924 49.1223C115.847 49.1823 115.758 49.2253 115.663 49.2483C115.568 49.2714 115.47 49.274 115.374 49.256L113.676 48.9317L106.495 47.56L105.849 47.7171ZM105.849 47.7171L113.029 49.0888L115.323 49.5273C115.457 49.5525 115.595 49.5488 115.728 49.5165C115.86 49.4843 115.985 49.4242 116.093 49.3401L117.934 47.8967L117.288 48.0538L115.924 49.1223C115.847 49.1823 115.758 49.2253 115.663 49.2483C115.568 49.2714 115.47 49.274 115.374 49.256L113.676 48.9317L106.495 47.56L105.849 47.7171Z" fill="white"/>
<path d="M105.849 47.717L113.029 49.0888L115.323 49.5273C115.457 49.5524 115.595 49.5488 115.728 49.5165C115.86 49.4843 115.985 49.4242 116.093 49.3401L117.934 47.8967L117.288 48.0538L115.924 49.1223C115.847 49.1823 115.758 49.2253 115.663 49.2483C115.568 49.2714 115.47 49.274 115.374 49.256L113.676 48.9317L106.495 47.56L105.849 47.717ZM127.297 40.208L127.367 40.4979L127.686 40.2493L127.297 40.208ZM105.849 47.717L113.029 49.0888L115.323 49.5273C115.457 49.5524 115.595 49.5488 115.728 49.5165C115.86 49.4843 115.985 49.4242 116.093 49.3401L117.934 47.8967L117.288 48.0538L115.924 49.1223C115.847 49.1823 115.758 49.2253 115.663 49.2483C115.568 49.2714 115.47 49.274 115.374 49.256L113.676 48.9317L106.495 47.56L105.849 47.717ZM105.849 47.717L113.029 49.0888L115.323 49.5273C115.457 49.5524 115.595 49.5488 115.728 49.5165C115.86 49.4843 115.985 49.4242 116.093 49.3401L117.934 47.8967L117.288 48.0538L115.924 49.1223C115.847 49.1823 115.758 49.2253 115.663 49.2483C115.568 49.2714 115.47 49.274 115.374 49.256L113.676 48.9317L106.495 47.56L105.849 47.717ZM82.8298 43.6537L82.8654 43.6805C82.8714 43.6707 82.8818 43.6619 82.8896 43.6517C82.969 43.5687 83.0677 43.5068 83.1768 43.4715C83.2859 43.4363 83.402 43.4288 83.5147 43.4496L99.1578 46.437L105.849 47.717L113.029 49.0888L115.323 49.5273C115.457 49.5524 115.595 49.5488 115.728 49.5165C115.86 49.4843 115.985 49.4242 116.093 49.3401L117.934 47.8967L117.288 48.0538L115.924 49.1223C115.847 49.1823 115.758 49.2253 115.663 49.2483C115.568 49.2713 115.47 49.274 115.374 49.256L113.676 48.9317L106.495 47.56L99.3077 46.1877L83.5663 43.1803C83.4321 43.1536 83.2936 43.1566 83.1607 43.1891L82.8298 43.6537ZM82.4535 44.3526L90.5563 77.955C90.6164 78.2034 90.7722 78.4176 90.9895 78.5507C91.2068 78.6838 91.4678 78.7249 91.7153 78.665L150.361 64.4127C150.608 64.3523 150.822 64.1959 150.954 63.9778C151.087 63.7596 151.128 63.4976 151.068 63.2492L142.965 29.6468C142.928 29.4899 142.852 29.3451 142.744 29.2257C142.636 29.1063 142.499 29.0163 142.347 28.964C142.235 28.9244 142.117 28.9064 141.998 28.9111C141.859 28.9152 141.723 28.951 141.601 29.0159C141.544 29.0429 141.491 29.0762 141.442 29.1152L136.629 32.8881L129.639 38.3697L127.297 40.206L127.297 40.208L127.295 40.2085L118.708 46.9384L117.288 48.0538L115.924 49.1223C115.847 49.1823 115.758 49.2253 115.663 49.2483C115.568 49.2714 115.47 49.274 115.374 49.256L113.676 48.9317L106.495 47.56L99.3077 46.1877L83.5663 43.1803C83.4321 43.1536 83.2936 43.1566 83.1607 43.1891C82.9817 43.233 82.819 43.3276 82.692 43.4617C82.6434 43.5143 82.6001 43.5717 82.5628 43.633C82.4335 43.8491 82.3942 44.1076 82.4535 44.3526ZM82.7207 44.2877C82.6968 44.1887 82.6953 44.0855 82.7162 43.9858C82.7371 43.886 82.78 43.7923 82.8417 43.7113C82.8473 43.6994 82.8554 43.6889 82.8654 43.6805C82.8714 43.6707 82.8818 43.6619 82.8896 43.6517C82.969 43.5687 83.0677 43.5068 83.1768 43.4715C83.2859 43.4363 83.402 43.4288 83.5147 43.4496L99.1578 46.437L105.849 47.717L113.029 49.0888L115.323 49.5273C115.457 49.5524 115.595 49.5488 115.728 49.5165C115.86 49.4843 115.985 49.4242 116.093 49.3401L117.934 47.8967L119.099 46.9832L127.367 40.4979L127.686 40.2493L129.638 38.7187L136.588 33.2697L141.612 29.3305C141.689 29.2707 141.777 29.2279 141.871 29.205C141.897 29.1985 141.924 29.1941 141.951 29.1918C141.974 29.1875 141.998 29.1852 142.022 29.185C142.102 29.1842 142.182 29.1973 142.258 29.2236C142.366 29.2615 142.464 29.3259 142.541 29.4111C142.618 29.4962 142.673 29.5994 142.7 29.7112L150.803 63.3136C150.824 63.4017 150.828 63.4931 150.814 63.5826C150.8 63.6721 150.769 63.7581 150.722 63.8354C150.675 63.9128 150.613 63.98 150.54 64.0334C150.467 64.0868 150.384 64.1252 150.297 64.1464L91.6511 78.3988C91.4741 78.4415 91.2876 78.4119 91.1324 78.3165C90.9772 78.2211 90.8661 78.0677 90.8235 77.8901L82.7207 44.2877ZM105.849 47.7171L113.029 49.0888L115.323 49.5273C115.457 49.5525 115.595 49.5488 115.728 49.5165C115.86 49.4843 115.985 49.4242 116.093 49.3401L117.934 47.8967L117.288 48.0538L115.924 49.1223C115.847 49.1823 115.758 49.2253 115.663 49.2483C115.568 49.2714 115.47 49.274 115.374 49.256L113.676 48.9317L106.495 47.56L105.849 47.7171ZM105.849 47.7171L113.029 49.0888L115.323 49.5273C115.457 49.5525 115.595 49.5488 115.728 49.5165C115.86 49.4843 115.985 49.4242 116.093 49.3401L117.934 47.8967L117.288 48.0538L115.924 49.1223C115.847 49.1823 115.758 49.2253 115.663 49.2483C115.568 49.2714 115.47 49.274 115.374 49.256L113.676 48.9317L106.495 47.56L105.849 47.7171ZM105.849 47.7171L113.029 49.0888L115.323 49.5273C115.457 49.5525 115.595 49.5488 115.728 49.5165C115.86 49.4843 115.985 49.4242 116.093 49.3401L117.934 47.8967L117.288 48.0538L115.924 49.1223C115.847 49.1823 115.758 49.2253 115.663 49.2483C115.568 49.2714 115.47 49.274 115.374 49.256L113.676 48.9317L106.495 47.56L105.849 47.7171Z" fill="#111111"/>
<path d="M135.076 57.8108C134.944 57.2602 135.035 56.6794 135.328 56.196C135.622 55.7125 136.095 55.3658 136.643 55.2319L144.045 53.4331C144.593 53.302 145.17 53.3942 145.65 53.6895C146.13 53.9848 146.474 54.4591 146.607 55.0085C146.739 55.5579 146.649 56.1376 146.357 56.6206C146.065 57.1037 145.593 57.4507 145.047 57.5856L137.645 59.3844C137.096 59.5171 136.518 59.4259 136.036 59.1309C135.555 58.8358 135.209 58.3611 135.076 57.8108Z" fill="#699CFF"/>
<path d="M53.277 51.5705C54.2903 51.5705 55.1117 50.7459 55.1117 49.7287C55.1117 48.7115 54.2903 47.8869 53.277 47.8869C52.2638 47.8869 51.4424 48.7115 51.4424 49.7287C51.4424 50.7459 52.2638 51.5705 53.277 51.5705Z" fill="white"/>
</svg>
