<svg width="157" height="135" viewBox="0 0 157 135" fill="none" xmlns="http://www.w3.org/2000/svg">
<rect x="0.187272" y="0.607484" width="109.977" height="92.8737" transform="matrix(0.884551 0.466443 -0.468391 0.883521 58.6366 -0.016593)" fill="white" stroke="#CFCFCF" stroke-width="0.9"/>
<rect width="96.4774" height="69.5913" transform="matrix(0.884551 0.466443 -0.468391 0.883521 61.6702 8.47742)" fill="#E6E6E6"/>
<path d="M111.169 134.08H6.73155C5.0743 134.079 3.48547 133.421 2.31362 132.252C1.14176 131.084 0.482592 129.499 0.480713 127.846V47.4731C0.482592 45.8203 1.14176 44.2356 2.31362 43.0669C3.48547 41.8982 5.0743 41.2408 6.73155 41.2389H111.169C112.826 41.2408 114.415 41.8982 115.587 43.0669C116.758 44.2356 117.418 45.8203 117.419 47.4731V127.846C117.418 129.499 116.758 131.084 115.587 132.252C114.415 133.421 112.826 134.079 111.169 134.08Z" fill="white"/>
<rect x="0.45" y="41.2906" width="116.709" height="92.819" fill="white" stroke="black" stroke-width="0.9"/>
<path d="M95.7821 68.8424C94.5688 68.8415 93.3719 69.1215 92.2855 69.6602C91.1991 70.199 90.253 70.9819 89.5214 71.9472C88.7363 71.6102 87.8795 71.473 87.028 71.5478C86.1765 71.6226 85.3569 71.9071 84.6429 72.3758C83.9289 72.8445 83.3427 73.4827 82.937 74.2331C82.5314 74.9835 82.3189 75.8226 82.3187 76.6752H103.636C103.636 75.6466 103.433 74.628 103.038 73.6777C102.643 72.7274 102.065 71.8639 101.335 71.1366C100.606 70.4092 99.7404 69.8323 98.7876 69.4386C97.8347 69.045 96.8135 68.8424 95.7821 68.8424Z" fill="#E6E6E6"/>
<path d="M29.8817 55.223C28.3848 55.2219 26.9081 55.5673 25.5677 56.232C24.2274 56.8967 23.06 57.8626 22.1575 59.0536C21.1887 58.6379 20.1317 58.4685 19.0811 58.5608C18.0305 58.6531 17.0194 59.0041 16.1385 59.5824C15.2575 60.1606 14.5344 60.948 14.0339 61.8739C13.5334 62.7997 13.2712 63.835 13.271 64.8868H39.5713C39.5713 63.6177 39.3206 62.3611 38.8337 61.1886C38.3467 60.0162 37.633 58.9508 36.7332 58.0535C35.8335 57.1561 34.7653 56.4443 33.5897 55.9586C32.4141 55.473 31.1541 55.223 29.8817 55.223Z" fill="#CCCCCC"/>
<rect x="11.0881" y="51.9007" width="96.0242" height="59.8111" stroke="black" stroke-width="0.9"/>
<ellipse cx="58.9391" cy="77.0007" rx="13.556" ry="13.5291" fill="#699CFF"/>
<path d="M80.3954 111.734C80.3954 109.199 79.8432 106.688 78.7703 104.346C77.6974 102.004 76.1249 99.876 74.1424 98.0833C72.16 96.2907 69.8065 94.8687 67.2163 93.8986C64.6261 92.9284 61.85 92.4291 59.0464 92.4291C56.2428 92.4291 53.4667 92.9284 50.8765 93.8986C48.2863 94.8687 45.9328 96.2907 43.9504 98.0833C41.9679 99.876 40.3954 102.004 39.3225 104.346C38.2496 106.688 37.6974 109.199 37.6974 111.734L59.0464 111.734H80.3954Z" fill="#699CFF"/>
</svg>
