<svg width="270" height="190" viewBox="0 0 270 190" fill="none" xmlns="http://www.w3.org/2000/svg">
<g clip-path="url(#clip0_181_4100)">
<path d="M197.367 99.8304L238 77.3358C243.417 82.5698 247.504 88.9266 249.948 95.9171C252.392 102.908 253.128 110.346 252.098 117.659C251.068 124.972 248.301 131.965 244.009 138.101C239.717 144.236 234.015 149.351 227.34 153.05C226.149 153.71 224.942 154.317 223.72 154.871L209.926 131.963C209.266 130.864 208.333 129.938 207.209 129.267C206.086 128.596 204.807 128.2 203.485 128.115C202.163 128.03 200.838 128.258 199.628 128.778C198.418 129.299 197.36 130.096 196.547 131.1L191.119 122.086C190.003 120.235 189.28 118.191 188.991 116.071C188.701 113.951 188.851 111.796 189.431 109.729C190.011 107.663 191.011 105.725 192.372 104.026C193.734 102.328 195.431 100.902 197.367 99.8304Z" fill="#F0F0F0"/>
<path d="M71.412 76.3123L49.3632 116.025C41.8782 114.334 34.9004 111.017 28.9669 106.327C23.0334 101.638 18.3022 95.7018 15.1373 88.9751C11.9724 82.2485 10.4582 74.9109 10.7112 67.5269C10.9642 60.1429 12.9776 52.9092 16.5965 46.3825C17.2432 45.2179 17.9317 44.0902 18.6622 42.9995L43.014 55.4302C44.181 56.0273 45.4837 56.3391 46.8072 56.338C48.1307 56.3369 49.4343 56.023 50.603 55.4241C51.7717 54.8251 52.7695 53.9594 53.5085 52.9035C54.2474 51.8475 54.7048 50.6337 54.8402 49.3692L64.4229 54.2608C66.3909 55.2645 68.1329 56.6312 69.5493 58.2827C70.9657 59.9342 72.0288 61.8383 72.6778 63.8861C73.3269 65.9338 73.5491 68.0852 73.3319 70.2174C73.1147 72.3495 72.4623 74.4206 71.412 76.3123Z" fill="#F0F0F0"/>
<path d="M35.1857 38.5385C35.6928 39.5347 36.3718 40.4789 37.1857 41.3109C39.1195 43.2876 41.8489 44.6859 44.8996 44.6859L214.872 44.6644H214.873C216.3 44.6622 217.713 44.9297 219.031 45.4506C220.349 45.9714 221.546 46.7361 222.554 47.6986C223.561 48.6611 224.36 49.8031 224.905 51.059C225.451 52.3149 225.732 53.661 225.735 55.0199L225.903 154.971C225.905 156.33 225.628 157.677 225.087 158.935C224.546 160.192 223.751 161.337 222.746 162.302C221.742 163.268 220.548 164.036 219.232 164.561C217.915 165.086 216.503 165.358 215.076 165.36L46.2336 165.621C44.8066 165.624 43.3935 165.356 42.0754 164.835C40.7574 164.314 39.5605 163.551 38.5529 162.588C37.5453 161.626 36.7466 160.483 36.2014 159.227C35.6561 157.971 35.3745 156.625 35.3723 155.266L35.1857 44.4427V38.5385Z" fill="#699CFF" stroke="black"/>
<path d="M161.473 84.5014L226.543 84.4001C228.694 84.3969 230.754 85.2128 232.272 86.6627C233.789 88.1121 234.64 90.0755 234.644 92.12L234.687 117.841C234.691 119.885 233.846 121.851 232.334 123.305C230.821 124.76 228.763 125.582 226.612 125.586L161.543 125.687C161.223 125.687 160.92 125.566 160.699 125.355C160.478 125.145 160.358 124.863 160.358 124.573L160.292 85.6184C160.291 85.329 160.411 85.0468 160.63 84.8357C160.85 84.624 161.153 84.5019 161.473 84.5014Z" fill="#F3F3F3" stroke="black" stroke-width="0.9"/>
<path d="M182.604 114.697C188.156 114.697 192.657 110.384 192.657 105.063C192.657 99.7423 188.156 95.429 182.604 95.429C177.052 95.429 172.551 99.7423 172.551 105.063C172.551 110.384 177.052 114.697 182.604 114.697Z" fill="#699CFF"/>
<path d="M43.3216 24.1818H190.839C193.016 24.1818 195.1 25.0107 196.634 26.4806C198.167 27.9499 199.025 29.9386 199.025 32.0079V44.463H45.7845C42.9545 44.463 40.2439 43.386 38.2483 41.4738C36.2534 39.5619 35.1361 36.9726 35.136 34.2775V32.0079C35.136 29.9386 35.9935 27.9499 37.5266 26.4806C39.0604 25.0107 41.1446 24.1818 43.3216 24.1818Z" fill="white" stroke="black" stroke-width="0.9"/>
</g>
<defs>
<clipPath id="clip0_181_4100">
<rect width="270" height="189.853" fill="white"/>
</clipPath>
</defs>
</svg>
