<svg width="1200" height="300" viewBox="0 0 1200 300" fill="none" xmlns="http://www.w3.org/2000/svg">
<g clip-path="url(#clip0_108_3413)">
<rect width="1200" height="300" fill="#2752E7"/>
<path d="M1165.82 -62.7907L1157.21 -57.6535C1094.82 -20.46 1095.2 70.0181 1157.9 106.688L1166.91 111.958C1225.83 146.425 1225.88 231.577 1166.99 266.106L1146.39 278.181C1103.78 303.164 1098.29 362.602 1135.59 394.973" stroke="#CFCFCF" stroke-width="1.31231"/>
<path d="M1159.17 -62.791L1150.55 -57.6539C1088.17 -20.4603 1088.54 70.0177 1151.24 106.687L1160.25 111.957C1219.17 146.424 1219.22 231.576 1160.33 266.105L1139.73 278.181C1097.12 303.164 1091.63 362.602 1128.94 394.972" stroke="#CFCFCF" stroke-width="1.31231"/>
<path d="M1152.51 -62.7903L1143.89 -57.6532C1081.51 -20.4596 1081.89 70.0185 1144.58 106.688L1153.59 111.958C1212.52 146.425 1212.56 231.577 1153.67 266.106L1133.07 278.181C1090.46 303.164 1084.97 362.602 1122.28 394.973" stroke="#CFCFCF" stroke-width="1.31231"/>
<path d="M1145.85 -62.791L1137.23 -57.6539C1074.85 -20.4603 1075.23 70.0177 1137.92 106.687L1146.93 111.957C1205.86 146.424 1205.9 231.576 1147.01 266.105L1126.42 278.181C1083.81 303.164 1078.31 362.602 1115.62 394.972" stroke="#CFCFCF" stroke-width="1.31231"/>
<path d="M1139.19 -62.7904L1130.57 -57.6533C1068.19 -20.4597 1068.57 70.0183 1131.26 106.688L1140.27 111.958C1199.2 146.425 1199.24 231.577 1140.35 266.106L1119.76 278.181C1077.15 303.164 1071.65 362.602 1108.96 394.973" stroke="#CFCFCF" stroke-width="1.31231"/>
<path d="M1132.53 -62.791L1123.91 -57.6539C1061.53 -20.4603 1061.91 70.0177 1124.6 106.687L1133.61 111.957C1192.54 146.424 1192.58 231.576 1133.69 266.105L1113.1 278.181C1070.49 303.164 1064.99 362.602 1102.3 394.972" stroke="#CFCFCF" stroke-width="1.31231"/>
<path d="M1125.87 -62.7905L1117.26 -57.6534C1054.87 -20.4598 1055.25 70.0182 1117.95 106.688L1126.95 111.958C1185.88 146.425 1185.93 231.577 1127.04 266.106L1106.44 278.181C1063.83 303.164 1058.34 362.602 1095.64 394.973" stroke="#CFCFCF" stroke-width="1.31231"/>
<path d="M1119.21 -62.7904L1110.6 -57.6533C1048.21 -20.4597 1048.59 70.0183 1111.29 106.688L1120.3 111.958C1179.22 146.425 1179.27 231.577 1120.38 266.106L1099.78 278.181C1057.17 303.164 1051.68 362.602 1088.99 394.973" stroke="#CFCFCF" stroke-width="1.31231"/>
<path d="M1112.56 -62.7908L1103.94 -57.6537C1041.56 -20.4601 1041.94 70.018 1104.63 106.688L1113.64 111.958C1172.57 146.425 1172.61 231.577 1113.72 266.106L1093.12 278.181C1050.51 303.164 1045.02 362.602 1082.33 394.973" stroke="#CFCFCF" stroke-width="1.31231"/>
<path d="M1105.9 -62.7905L1097.28 -57.6534C1034.9 -20.4598 1035.28 70.0182 1097.97 106.688L1106.98 111.958C1165.91 146.425 1165.95 231.577 1107.06 266.106L1086.47 278.181C1043.86 303.164 1038.36 362.602 1075.67 394.973" stroke="#CFCFCF" stroke-width="1.31231"/>
<path d="M1099.24 -62.7909L1090.62 -57.6538C1028.24 -20.4602 1028.62 70.0178 1091.31 106.688L1100.32 111.957C1159.25 146.425 1159.29 231.576 1100.4 266.105L1079.81 278.181C1037.2 303.164 1031.7 362.602 1069.01 394.973" stroke="#CFCFCF" stroke-width="1.31231"/>
<path d="M1092.58 -62.7908L1083.97 -57.6537C1021.58 -20.4601 1021.96 70.018 1084.65 106.688L1093.66 111.958C1152.59 146.425 1152.64 231.577 1093.74 266.106L1073.15 278.181C1030.54 303.164 1025.04 362.602 1062.35 394.973" stroke="#CFCFCF" stroke-width="1.31231"/>
<path d="M1085.92 -62.7907L1077.31 -57.6535C1014.92 -20.46 1015.3 70.0181 1077.99 106.688L1087 111.958C1145.93 146.425 1145.98 231.577 1087.09 266.106L1066.49 278.181C1023.88 303.164 1018.39 362.602 1055.69 394.973" stroke="#CFCFCF" stroke-width="1.31231"/>
<path d="M1079.26 -62.7907L1070.65 -57.6535C1008.26 -20.46 1008.64 70.0181 1071.34 106.688L1080.35 111.958C1139.27 146.425 1139.32 231.577 1080.43 266.106L1059.83 278.181C1017.22 303.164 1011.73 362.602 1049.04 394.973" stroke="#CFCFCF" stroke-width="1.31231"/>
<path d="M1072.61 -62.7905L1063.99 -57.6534C1001.61 -20.4598 1001.98 70.0182 1064.68 106.688L1073.69 111.958C1132.62 146.425 1132.66 231.577 1073.77 266.106L1053.17 278.181C1010.56 303.164 1005.07 362.602 1042.38 394.973" stroke="#CFCFCF" stroke-width="1.31231"/>
<path d="M1066.11 -62.7904L1057.49 -57.6533C995.105 -20.4597 995.484 70.0183 1058.18 106.688L1067.19 111.958C1126.11 146.425 1126.16 231.577 1067.27 266.106L1046.67 278.181C1004.06 303.164 998.568 362.602 1035.88 394.973" stroke="#CFCFCF" stroke-width="1.31231"/>
<path d="M1059.6 -62.7904L1050.99 -57.6533C988.604 -20.4597 988.983 70.0183 1051.68 106.688L1060.69 111.958C1119.61 146.425 1119.66 231.577 1060.77 266.106L1040.17 278.181C997.562 303.164 992.067 362.602 1029.38 394.973" stroke="#CFCFCF" stroke-width="1.31231"/>
<path d="M1053.1 -62.7908L1044.49 -57.6537C982.104 -20.4601 982.482 70.018 1045.18 106.688L1054.19 111.958C1113.11 146.425 1113.16 231.577 1054.27 266.106L1033.67 278.181C991.061 303.164 985.566 362.602 1022.87 394.973" stroke="#CFCFCF" stroke-width="1.31231"/>
<path d="M1046.6 -62.7904L1037.99 -57.6533C975.603 -20.4597 975.981 70.0183 1038.67 106.688L1047.68 111.958C1106.61 146.425 1106.66 231.577 1047.77 266.106L1027.17 278.181C984.56 303.164 979.065 362.602 1016.37 394.973" stroke="#CFCFCF" stroke-width="1.31231"/>
<path d="M1040.1 -62.7904L1031.49 -57.6533C969.102 -20.4597 969.481 70.0183 1032.17 106.688L1041.18 111.958C1100.11 146.425 1100.16 231.577 1041.26 266.106L1020.67 278.181C978.06 303.164 972.565 362.602 1009.87 394.973" stroke="#CFCFCF" stroke-width="1.31231"/>
<path d="M1033.6 -62.7905L1024.98 -57.6534C962.601 -20.4598 962.98 70.0182 1025.67 106.688L1034.68 111.958C1093.61 146.425 1093.65 231.577 1034.76 266.106L1014.17 278.181C971.559 303.164 966.064 362.602 1003.37 394.973" stroke="#CFCFCF" stroke-width="1.31231"/>
<path d="M1027.1 -62.7905L1018.48 -57.6534C956.101 -20.4598 956.48 70.0182 1019.17 106.688L1028.18 111.958C1087.11 146.425 1087.15 231.577 1028.26 266.106L1007.67 278.181C965.059 303.164 959.564 362.602 996.872 394.973" stroke="#CFCFCF" stroke-width="1.31231"/>
<path d="M1020.6 -62.7905L1011.98 -57.6534C949.6 -20.4598 949.979 70.0182 1012.67 106.688L1021.68 111.958C1080.61 146.425 1080.65 231.577 1021.76 266.106L1001.17 278.181C958.558 303.164 953.063 362.602 990.371 394.973" stroke="#CFCFCF" stroke-width="1.31231"/>
<path d="M1014.1 -62.7904L1005.48 -57.6533C943.099 -20.4597 943.478 70.0183 1006.17 106.688L1015.18 111.958C1074.11 146.425 1074.15 231.577 1015.26 266.106L994.667 278.181C952.057 303.164 946.562 362.602 983.87 394.973" stroke="#CFCFCF" stroke-width="1.31231"/>
<path d="M1007.6 -62.7904L998.982 -57.6533C936.599 -20.4597 936.978 70.0183 999.671 106.688L1008.68 111.958C1067.61 146.425 1067.65 231.577 1008.76 266.106L988.166 278.181C945.556 303.164 940.062 362.602 977.37 394.973" stroke="#CFCFCF" stroke-width="1.31231"/>
<path d="M1001.1 -62.7907L992.481 -57.6535C930.098 -20.46 930.477 70.0181 993.17 106.688L1002.18 111.958C1061.11 146.425 1061.15 231.577 1002.26 266.106L981.665 278.181C939.055 303.164 933.561 362.602 970.869 394.973" stroke="#CFCFCF" stroke-width="1.31231"/>
<path d="M994.597 -62.7905L985.98 -57.6534C923.597 -20.4598 923.976 70.0182 986.669 106.688L995.679 111.958C1054.61 146.425 1054.65 231.577 995.759 266.106L975.164 278.181C932.554 303.164 927.06 362.602 964.368 394.973" stroke="#CFCFCF" stroke-width="1.31231"/>
<path d="M988.096 -62.7904L979.48 -57.6533C917.096 -20.4597 917.475 70.0183 980.168 106.688L989.178 111.958C1048.11 146.425 1048.15 231.577 989.259 266.106L968.664 278.181C926.054 303.164 920.559 362.602 957.867 394.973" stroke="#CFCFCF" stroke-width="1.31231"/>
<path d="M981.595 -62.7904L972.979 -57.6533C910.595 -20.4597 910.974 70.0183 973.667 106.688L982.677 111.958C1041.6 146.425 1041.65 231.577 982.758 266.106L962.163 278.181C919.553 303.164 914.058 362.602 951.366 394.973" stroke="#CFCFCF" stroke-width="1.31231"/>
<rect x="949.493" y="134" width="76.8961" height="76.8961" rx="38.448" transform="rotate(29.1816 949.493 134)" fill="white"/>
<path d="M957.478 194.515C960.592 196.239 967.401 200.009 969.736 195.643C972.129 191.181 965.454 187.802 962.2 186.158C961.837 185.973 961.513 185.811 961.254 185.67L956.733 194.107C956.946 194.218 957.198 194.359 957.478 194.515V194.515ZM963.948 182.154C966.543 183.599 972.205 186.754 974.333 182.786C976.505 178.726 970.937 175.928 968.217 174.563C967.909 174.41 967.643 174.276 967.423 174.157L963.323 181.808L963.948 182.154Z" fill="#FFBE55"/>
<path fill-rule="evenodd" clip-rule="evenodd" d="M938.006 214.342C953.488 228.871 977.818 228.098 992.344 212.621C1006.87 197.141 1006.1 172.81 990.611 158.284C975.141 143.758 950.81 144.534 936.284 160.018C921.758 175.495 922.531 199.825 938.007 214.346L938.006 214.342ZM976.573 173.42C981.285 176.507 984.388 180.126 982.394 184.899C980.94 188.395 978.48 189.646 975.655 189.587C978.841 192.423 979.97 195.824 976.906 200.455C973.105 206.204 967.724 205.411 961.086 202.328L957.677 208.681L953.845 206.633L957.204 200.362C956.213 199.83 955.199 199.279 954.159 198.691L950.787 204.991L946.956 202.94L950.366 196.573L949.29 195.983C948.745 195.682 948.196 195.379 947.641 195.084L942.654 192.409L945.865 188.243C945.865 188.243 948.677 189.805 948.65 189.735C949.737 190.313 950.441 189.69 950.771 189.236L956.158 179.19L956.432 179.336L956.561 179.408C956.436 179.318 956.305 179.236 956.169 179.163L960.014 171.989C960.282 171.134 960.261 169.963 958.71 169.133C958.783 169.1 955.925 167.64 955.925 167.64L958.114 163.549L963.401 166.384L963.39 166.403C964.184 166.828 965.008 167.252 965.845 167.679L969.221 161.384L973.05 163.438L969.744 169.607C970.777 170.136 971.817 170.666 972.825 171.207L976.109 165.077L979.943 167.13L976.57 173.426L976.573 173.42Z" fill="#FFBE55"/>
<path d="M76.7699 69.7244H71.4574C71.3059 68.8532 71.0265 68.0814 70.6193 67.4091C70.2121 66.7273 69.7055 66.1496 69.0994 65.6761C68.4934 65.2027 67.8021 64.8475 67.0256 64.6108C66.2585 64.3646 65.4299 64.2415 64.5398 64.2415C62.9583 64.2415 61.5568 64.6392 60.3352 65.4347C59.1136 66.2206 58.1572 67.3759 57.4659 68.9006C56.7746 70.4157 56.429 72.267 56.429 74.4545C56.429 76.6799 56.7746 78.5549 57.4659 80.0795C58.1667 81.5947 59.1231 82.7405 60.3352 83.517C61.5568 84.2841 62.9536 84.6676 64.5256 84.6676C65.3968 84.6676 66.2112 84.554 66.9688 84.3267C67.7358 84.09 68.4223 83.7443 69.0284 83.2898C69.6439 82.8352 70.16 82.2765 70.5767 81.6136C71.0028 80.9508 71.2964 80.1932 71.4574 79.3409L76.7699 79.3693C76.571 80.7519 76.1402 82.0492 75.4773 83.2614C74.8239 84.4735 73.9669 85.5436 72.9062 86.4716C71.8456 87.3902 70.6051 88.1098 69.1847 88.6307C67.7642 89.142 66.1875 89.3977 64.4545 89.3977C61.8977 89.3977 59.6155 88.8059 57.608 87.6222C55.6004 86.4384 54.0189 84.7292 52.8636 82.4943C51.7083 80.2595 51.1307 77.5795 51.1307 74.4545C51.1307 71.3201 51.7131 68.6402 52.8778 66.4148C54.0426 64.1799 55.6288 62.4706 57.6364 61.2869C59.6439 60.1032 61.9167 59.5114 64.4545 59.5114C66.0739 59.5114 67.5795 59.7386 68.9716 60.1932C70.3636 60.6477 71.6042 61.3153 72.6932 62.196C73.7822 63.0672 74.6771 64.1373 75.3778 65.4062C76.0881 66.6657 76.5521 68.1051 76.7699 69.7244ZM80.5959 89V59.9091H91.7322C93.8345 59.9091 95.5817 60.2405 96.9737 60.9034C98.3752 61.5568 99.4216 62.4517 100.113 63.5881C100.814 64.7244 101.164 66.0123 101.164 67.4517C101.164 68.6354 100.937 69.6487 100.482 70.4915C100.028 71.3248 99.4169 72.0019 98.6499 72.5227C97.8828 73.0436 97.0258 73.4176 96.0788 73.6449V73.929C97.111 73.9858 98.1006 74.303 99.0476 74.8807C100.004 75.4489 100.785 76.2538 101.391 77.2955C101.997 78.3371 102.3 79.5966 102.3 81.0739C102.3 82.5795 101.936 83.9337 101.207 85.1364C100.478 86.3295 99.379 87.2718 97.9112 87.9631C96.4434 88.6544 94.5968 89 92.3714 89H80.5959ZM85.8658 84.5966H91.5334C93.4463 84.5966 94.8241 84.232 95.6669 83.5028C96.5192 82.7642 96.9453 81.8172 96.9453 80.6619C96.9453 79.8002 96.7322 79.0237 96.3061 78.3324C95.88 77.6316 95.2739 77.0824 94.4879 76.6847C93.7019 76.2775 92.7644 76.0739 91.6754 76.0739H85.8658V84.5966ZM85.8658 72.2812H91.0788C91.9879 72.2812 92.8071 72.1155 93.5362 71.7841C94.2654 71.4432 94.8383 70.965 95.255 70.3494C95.6811 69.7244 95.8942 68.9858 95.8942 68.1335C95.8942 67.0066 95.4964 66.0786 94.701 65.3494C93.915 64.6203 92.7455 64.2557 91.1925 64.2557H85.8658V72.2812ZM111.936 89.4403C110.554 89.4403 109.308 89.1941 108.2 88.7017C107.102 88.1998 106.231 87.4612 105.587 86.4858C104.952 85.5104 104.635 84.3078 104.635 82.8778C104.635 81.6468 104.862 80.6288 105.317 79.8239C105.771 79.0189 106.392 78.375 107.178 77.892C107.964 77.4091 108.849 77.0445 109.834 76.7983C110.828 76.5426 111.856 76.358 112.916 76.2443C114.195 76.1117 115.232 75.9934 116.027 75.8892C116.822 75.7756 117.4 75.6051 117.76 75.3778C118.129 75.1411 118.314 74.7765 118.314 74.2841V74.1989C118.314 73.1288 117.997 72.3002 117.362 71.7131C116.728 71.1259 115.814 70.8324 114.621 70.8324C113.361 70.8324 112.362 71.107 111.624 71.6562C110.894 72.2055 110.402 72.8542 110.146 73.6023L105.345 72.9205C105.724 71.5947 106.349 70.4867 107.22 69.5966C108.091 68.697 109.157 68.0246 110.416 67.5795C111.676 67.125 113.068 66.8977 114.592 66.8977C115.643 66.8977 116.69 67.0208 117.732 67.267C118.773 67.5133 119.725 67.9205 120.587 68.4886C121.448 69.0473 122.14 69.8097 122.661 70.7756C123.191 71.7415 123.456 72.9489 123.456 74.3977V89H118.513V86.0028H118.342C118.03 86.6089 117.589 87.1771 117.021 87.7074C116.463 88.2282 115.757 88.6496 114.905 88.9716C114.062 89.2841 113.072 89.4403 111.936 89.4403ZM113.271 85.6619C114.304 85.6619 115.198 85.4583 115.956 85.0511C116.714 84.6345 117.296 84.0852 117.703 83.4034C118.12 82.7216 118.328 81.9782 118.328 81.1733V78.6023C118.167 78.7348 117.893 78.858 117.504 78.9716C117.125 79.0852 116.699 79.1847 116.226 79.2699C115.752 79.3551 115.284 79.4309 114.82 79.4972C114.356 79.5634 113.953 79.6203 113.612 79.6676C112.845 79.7718 112.159 79.9422 111.553 80.179C110.946 80.4157 110.468 80.7472 110.118 81.1733C109.768 81.59 109.592 82.1297 109.592 82.7926C109.592 83.7396 109.938 84.4545 110.629 84.9375C111.321 85.4205 112.201 85.6619 113.271 85.6619ZM144.871 72.9489L140.183 73.4602C140.051 72.9867 139.819 72.5417 139.487 72.125C139.165 71.7083 138.73 71.3722 138.18 71.1165C137.631 70.8608 136.959 70.733 136.163 70.733C135.093 70.733 134.194 70.965 133.464 71.429C132.745 71.893 132.39 72.4943 132.399 73.233C132.39 73.8674 132.622 74.3835 133.095 74.7812C133.578 75.179 134.374 75.5057 135.482 75.7614L139.203 76.5568C141.268 77.0019 142.802 77.7074 143.805 78.6733C144.819 79.6392 145.33 80.9034 145.339 82.4659C145.33 83.839 144.928 85.0511 144.132 86.1023C143.346 87.1439 142.252 87.9583 140.851 88.5455C139.449 89.1326 137.839 89.4261 136.021 89.4261C133.351 89.4261 131.201 88.8674 129.572 87.75C127.944 86.6231 126.973 85.0559 126.661 83.0483L131.675 82.5653C131.902 83.5502 132.385 84.2936 133.124 84.7955C133.862 85.2973 134.823 85.5483 136.007 85.5483C137.229 85.5483 138.209 85.2973 138.947 84.7955C139.696 84.2936 140.07 83.6733 140.07 82.9347C140.07 82.3097 139.828 81.7936 139.345 81.3864C138.872 80.9792 138.133 80.6667 137.129 80.4489L133.408 79.6676C131.315 79.232 129.767 78.4981 128.763 77.4659C127.759 76.4242 127.262 75.108 127.271 73.517C127.262 72.1723 127.626 71.0076 128.365 70.0227C129.113 69.0284 130.15 68.2614 131.476 67.7216C132.811 67.1723 134.35 66.8977 136.092 66.8977C138.649 66.8977 140.661 67.4422 142.129 68.5312C143.607 69.6203 144.52 71.0928 144.871 72.9489ZM158.239 89.4261C156.051 89.4261 154.162 88.9716 152.571 88.0625C150.99 87.1439 149.773 85.8466 148.92 84.1705C148.068 82.4848 147.642 80.5009 147.642 78.2188C147.642 75.9744 148.068 74.0047 148.92 72.3097C149.782 70.6051 150.985 69.2794 152.528 68.3324C154.072 67.3759 155.885 66.8977 157.969 66.8977C159.313 66.8977 160.582 67.1155 161.776 67.5511C162.978 67.9773 164.039 68.6402 164.957 69.5398C165.885 70.4394 166.615 71.5852 167.145 72.9773C167.675 74.3598 167.94 76.0076 167.94 77.9205V79.4972H150.057V76.0312H163.011C163.002 75.0464 162.789 74.1705 162.372 73.4034C161.955 72.6269 161.373 72.0161 160.625 71.571C159.886 71.1259 159.025 70.9034 158.04 70.9034C156.989 70.9034 156.065 71.1591 155.27 71.6705C154.474 72.1723 153.854 72.8352 153.409 73.6591C152.973 74.4735 152.751 75.3684 152.741 76.3438V79.3693C152.741 80.6383 152.973 81.7273 153.438 82.6364C153.902 83.536 154.55 84.2273 155.384 84.7102C156.217 85.1837 157.192 85.4205 158.31 85.4205C159.058 85.4205 159.735 85.3163 160.341 85.108C160.947 84.8902 161.473 84.5729 161.918 84.1562C162.363 83.7396 162.699 83.2235 162.926 82.608L167.727 83.1477C167.424 84.4167 166.847 85.5246 165.994 86.4716C165.152 87.4091 164.072 88.1383 162.756 88.6591C161.439 89.1705 159.934 89.4261 158.239 89.4261Z" fill="white"/>
<path d="M53.4091 111V99.3636H57.3409C58.2538 99.3636 59 99.5284 59.5795 99.858C60.1629 100.184 60.5947 100.625 60.875 101.182C61.1553 101.739 61.2955 102.36 61.2955 103.045C61.2955 103.731 61.1553 104.354 60.875 104.915C60.5985 105.475 60.1705 105.922 59.5909 106.256C59.0114 106.585 58.2689 106.75 57.3636 106.75H54.5455V105.5H57.3182C57.9432 105.5 58.4451 105.392 58.8239 105.176C59.2027 104.96 59.4773 104.669 59.6477 104.301C59.822 103.93 59.9091 103.511 59.9091 103.045C59.9091 102.58 59.822 102.163 59.6477 101.795C59.4773 101.428 59.2008 101.14 58.8182 100.932C58.4356 100.72 57.928 100.614 57.2955 100.614H54.8182V111H53.4091ZM62.3835 111V102.273H63.679V103.591H63.7699C63.929 103.159 64.2169 102.809 64.6335 102.54C65.0502 102.271 65.5199 102.136 66.0426 102.136C66.1411 102.136 66.2642 102.138 66.4119 102.142C66.5597 102.146 66.6714 102.152 66.7472 102.159V103.523C66.7017 103.511 66.5975 103.494 66.4347 103.472C66.2756 103.445 66.107 103.432 65.929 103.432C65.5047 103.432 65.1259 103.521 64.7926 103.699C64.4631 103.873 64.2017 104.116 64.0085 104.426C63.8191 104.733 63.7244 105.083 63.7244 105.477V111H62.3835ZM70.6165 111.182C69.8286 111.182 69.1373 110.994 68.5426 110.619C67.9517 110.244 67.4896 109.72 67.1562 109.045C66.8267 108.371 66.6619 107.583 66.6619 106.682C66.6619 105.773 66.8267 104.979 67.1562 104.301C67.4896 103.623 67.9517 103.097 68.5426 102.722C69.1373 102.347 69.8286 102.159 70.6165 102.159C71.4044 102.159 72.0938 102.347 72.6847 102.722C73.2794 103.097 73.7415 103.623 74.071 104.301C74.4044 104.979 74.571 105.773 74.571 106.682C74.571 107.583 74.4044 108.371 74.071 109.045C73.7415 109.72 73.2794 110.244 72.6847 110.619C72.0938 110.994 71.4044 111.182 70.6165 111.182ZM70.6165 109.977C71.215 109.977 71.7074 109.824 72.0938 109.517C72.4801 109.21 72.7661 108.807 72.9517 108.307C73.1373 107.807 73.2301 107.265 73.2301 106.682C73.2301 106.098 73.1373 105.555 72.9517 105.051C72.7661 104.547 72.4801 104.14 72.0938 103.83C71.7074 103.519 71.215 103.364 70.6165 103.364C70.018 103.364 69.5256 103.519 69.1392 103.83C68.7528 104.14 68.4669 104.547 68.2812 105.051C68.0956 105.555 68.0028 106.098 68.0028 106.682C68.0028 107.265 68.0956 107.807 68.2812 108.307C68.4669 108.807 68.7528 109.21 69.1392 109.517C69.5256 109.824 70.018 109.977 70.6165 109.977ZM75.6179 102.273H76.9588V111.636C76.9588 112.174 76.866 112.64 76.6804 113.034C76.4986 113.428 76.2221 113.733 75.8509 113.949C75.4834 114.165 75.0194 114.273 74.4588 114.273C74.4134 114.273 74.3679 114.273 74.3224 114.273C74.277 114.273 74.2315 114.273 74.1861 114.273V113.023C74.2315 113.023 74.2732 113.023 74.3111 113.023C74.349 113.023 74.3906 113.023 74.4361 113.023C74.8452 113.023 75.1444 112.902 75.3338 112.659C75.5232 112.42 75.6179 112.08 75.6179 111.636V102.273ZM76.277 100.818C76.0156 100.818 75.7902 100.729 75.6009 100.551C75.4152 100.373 75.3224 100.159 75.3224 99.9091C75.3224 99.6591 75.4152 99.4451 75.6009 99.267C75.7902 99.089 76.0156 99 76.277 99C76.5384 99 76.7618 99.089 76.9474 99.267C77.1368 99.4451 77.2315 99.6591 77.2315 99.9091C77.2315 100.159 77.1368 100.373 76.9474 100.551C76.7618 100.729 76.5384 100.818 76.277 100.818ZM82.0739 111.182C81.233 111.182 80.5076 110.996 79.8977 110.625C79.2917 110.25 78.8239 109.727 78.4943 109.057C78.1686 108.383 78.0057 107.598 78.0057 106.705C78.0057 105.811 78.1686 105.023 78.4943 104.341C78.8239 103.655 79.2822 103.121 79.8693 102.739C80.4602 102.352 81.1496 102.159 81.9375 102.159C82.392 102.159 82.8409 102.235 83.2841 102.386C83.7273 102.538 84.1307 102.784 84.4943 103.125C84.858 103.462 85.1477 103.909 85.3636 104.466C85.5795 105.023 85.6875 105.708 85.6875 106.523V107.091H78.9602V105.932H84.3239C84.3239 105.439 84.2254 105 84.0284 104.614C83.8352 104.227 83.5587 103.922 83.1989 103.699C82.8428 103.475 82.4223 103.364 81.9375 103.364C81.4034 103.364 80.9413 103.496 80.5511 103.761C80.1648 104.023 79.8674 104.364 79.6591 104.784C79.4508 105.205 79.3466 105.655 79.3466 106.136V106.909C79.3466 107.568 79.4602 108.127 79.6875 108.585C79.9186 109.04 80.2386 109.386 80.6477 109.625C81.0568 109.86 81.5322 109.977 82.0739 109.977C82.4261 109.977 82.7443 109.928 83.0284 109.83C83.3163 109.727 83.5644 109.576 83.7727 109.375C83.9811 109.17 84.142 108.917 84.2557 108.614L85.5511 108.977C85.4148 109.417 85.1856 109.803 84.8636 110.136C84.5417 110.466 84.1439 110.723 83.6705 110.909C83.197 111.091 82.6648 111.182 82.0739 111.182ZM90.2727 111.182C89.4545 111.182 88.75 110.989 88.1591 110.602C87.5682 110.216 87.1136 109.684 86.7955 109.006C86.4773 108.328 86.3182 107.553 86.3182 106.682C86.3182 105.795 86.4811 105.013 86.8068 104.335C87.1364 103.653 87.5947 103.121 88.1818 102.739C88.7727 102.352 89.4621 102.159 90.25 102.159C90.8636 102.159 91.4167 102.273 91.9091 102.5C92.4015 102.727 92.8049 103.045 93.1193 103.455C93.4337 103.864 93.6288 104.341 93.7045 104.886H92.3636C92.2614 104.489 92.0341 104.136 91.6818 103.83C91.3333 103.519 90.8636 103.364 90.2727 103.364C89.75 103.364 89.2917 103.5 88.8977 103.773C88.5076 104.042 88.2027 104.422 87.983 104.915C87.767 105.403 87.6591 105.977 87.6591 106.636C87.6591 107.311 87.7652 107.898 87.9773 108.398C88.1932 108.898 88.4962 109.286 88.8864 109.562C89.2803 109.839 89.7424 109.977 90.2727 109.977C90.6212 109.977 90.9375 109.917 91.2216 109.795C91.5057 109.674 91.7462 109.5 91.9432 109.273C92.1402 109.045 92.2803 108.773 92.3636 108.455H93.7045C93.6288 108.97 93.4413 109.434 93.142 109.847C92.8466 110.256 92.4545 110.581 91.9659 110.824C91.4811 111.062 90.9167 111.182 90.2727 111.182ZM98.4602 102.273V103.409H93.9375V102.273H98.4602ZM95.2557 100.182H96.5966V108.5C96.5966 108.879 96.6515 109.163 96.7614 109.352C96.875 109.538 97.0189 109.663 97.1932 109.727C97.3712 109.788 97.5587 109.818 97.7557 109.818C97.9034 109.818 98.0246 109.811 98.1193 109.795C98.214 109.777 98.2898 109.761 98.3466 109.75L98.6193 110.955C98.5284 110.989 98.4015 111.023 98.2386 111.057C98.0758 111.095 97.8693 111.114 97.6193 111.114C97.2405 111.114 96.8693 111.032 96.5057 110.869C96.1458 110.706 95.8466 110.458 95.608 110.125C95.3731 109.792 95.2557 109.371 95.2557 108.864V100.182Z" fill="white"/>
<path d="M76.0051 205.78H75.4565V233.544H76.0051V205.78Z" fill="white"/>
<path d="M76.0051 241.808H75.4565V266.238H76.0051V241.808Z" fill="white"/>
<path d="M117.148 270.13H74.6333V270.649H117.148V270.13Z" fill="white"/>
<path d="M57.0789 277.136H56.5303V299.191H57.0789V277.136Z" fill="white"/>
<path d="M179.686 188.136H179.138V214.343H179.686V188.136Z" fill="white"/>
<path d="M175.023 218.494H134.693V219.013H175.023V218.494Z" fill="white"/>
<path d="M130.588 222.646H130.04V257.675H130.588V222.646Z" fill="white"/>
<path d="M75.7308 242.107C74.8085 242.107 73.907 241.848 73.1402 241.363C72.3734 240.878 71.7757 240.19 71.4228 239.384C71.0699 238.578 70.9775 237.691 71.1575 236.835C71.3374 235.979 71.7815 235.193 72.4336 234.576C73.0857 233.959 73.9166 233.539 74.8211 233.369C75.7256 233.199 76.6632 233.286 77.5152 233.62C78.3672 233.954 79.0955 234.519 79.6078 235.245C80.1202 235.97 80.3937 236.823 80.3937 237.695C80.3923 238.865 79.9006 239.986 79.0264 240.813C78.1523 241.64 76.967 242.105 75.7308 242.107V242.107ZM75.7308 233.803C74.917 233.803 74.1216 234.032 73.445 234.459C72.7684 234.887 72.241 235.495 71.9296 236.206C71.6182 236.917 71.5368 237.7 71.6955 238.455C71.8543 239.21 72.2461 239.903 72.8215 240.448C73.3969 240.992 74.13 241.363 74.9281 241.513C75.7262 241.663 76.5535 241.586 77.3053 241.291C78.0571 240.997 78.6996 240.498 79.1517 239.858C79.6038 239.218 79.8451 238.465 79.8451 237.695C79.8439 236.664 79.41 235.674 78.6387 234.945C77.8674 234.215 76.8216 233.805 75.7308 233.803V233.803Z" fill="white"/>
<path d="M57.0789 307.754C56.1567 307.754 55.2552 307.495 54.4884 307.01C53.7215 306.525 53.1239 305.837 52.771 305.03C52.418 304.224 52.3257 303.338 52.5056 302.482C52.6855 301.626 53.1296 300.84 53.7818 300.223C54.4339 299.606 55.2647 299.186 56.1692 299.016C57.0737 298.846 58.0113 298.933 58.8633 299.267C59.7154 299.601 60.4436 300.166 60.956 300.892C61.4684 301.617 61.7418 302.47 61.7418 303.342C61.7404 304.512 61.2487 305.633 60.3746 306.46C59.5004 307.287 58.3152 307.752 57.0789 307.754V307.754ZM57.0789 299.45C56.2652 299.45 55.4697 299.679 54.7931 300.106C54.1165 300.534 53.5892 301.142 53.2778 301.853C52.9664 302.564 52.8849 303.347 53.0437 304.102C53.2024 304.857 53.5943 305.55 54.1697 306.095C54.745 306.639 55.4782 307.01 56.2763 307.16C57.0744 307.31 57.9016 307.233 58.6534 306.938C59.4052 306.644 60.0478 306.145 60.4999 305.505C60.952 304.865 61.1933 304.112 61.1933 303.342C61.192 302.311 60.7582 301.321 59.9869 300.592C59.2155 299.862 58.1697 299.451 57.0789 299.45V299.45Z" fill="white"/>
<path d="M76.0048 274.541C78.4286 274.541 80.3934 272.682 80.3934 270.389C80.3934 268.096 78.4286 266.238 76.0048 266.238C73.5811 266.238 71.6162 268.096 71.6162 270.389C71.6162 272.682 73.5811 274.541 76.0048 274.541Z" fill="#FFCC00"/>
<path d="M234.818 237.436H189.286V237.955H234.818V237.436Z" fill="white"/>
<path d="M185.172 241.808H184.623V266.238H185.172V241.808Z" fill="white"/>
<path d="M180.235 270.13H143.754V270.649H180.235V270.13Z" fill="white"/>
<path d="M245.789 272.465H207.938V272.984H245.789V272.465Z" fill="white"/>
<path d="M204.098 277.136H203.549V299.191H204.098V277.136Z" fill="white"/>
<path d="M130.588 283.104H130.04V299.191H130.588V283.104Z" fill="white"/>
<path d="M184.897 241.847C187.321 241.847 189.286 239.988 189.286 237.696C189.286 235.403 187.321 233.544 184.897 233.544C182.474 233.544 180.509 235.403 180.509 237.696C180.509 239.988 182.474 241.847 184.897 241.847Z" fill="#FFCC00"/>
<path d="M179.412 222.905C178.49 222.905 177.588 222.647 176.821 222.162C176.055 221.677 175.457 220.988 175.104 220.182C174.751 219.376 174.659 218.49 174.839 217.634C175.019 216.778 175.463 215.992 176.115 215.375C176.767 214.758 177.598 214.338 178.502 214.168C179.407 213.998 180.344 214.085 181.196 214.419C182.048 214.753 182.777 215.318 183.289 216.044C183.801 216.769 184.075 217.622 184.075 218.494C184.073 219.664 183.582 220.785 182.708 221.612C181.833 222.439 180.648 222.904 179.412 222.905V222.905ZM179.412 214.602C178.598 214.602 177.803 214.831 177.126 215.258C176.45 215.686 175.922 216.294 175.611 217.005C175.299 217.716 175.218 218.499 175.377 219.254C175.535 220.009 175.927 220.702 176.503 221.247C177.078 221.791 177.811 222.162 178.609 222.312C179.407 222.462 180.235 222.385 180.986 222.09C181.738 221.796 182.381 221.297 182.833 220.657C183.285 220.017 183.526 219.264 183.526 218.494C183.525 217.463 183.091 216.473 182.32 215.744C181.549 215.014 180.503 214.603 179.412 214.602V214.602Z" fill="white"/>
<path d="M130.314 222.905C129.392 222.905 128.491 222.647 127.724 222.162C126.957 221.677 126.359 220.988 126.006 220.182C125.653 219.376 125.561 218.49 125.741 217.634C125.921 216.778 126.365 215.992 127.017 215.375C127.669 214.758 128.5 214.338 129.405 214.168C130.309 213.998 131.247 214.085 132.099 214.419C132.951 214.753 133.679 215.318 134.191 216.044C134.704 216.769 134.977 217.622 134.977 218.494C134.976 219.664 134.484 220.785 133.61 221.612C132.736 222.439 131.551 222.904 130.314 222.905V222.905ZM130.314 214.602C129.501 214.602 128.705 214.831 128.028 215.258C127.352 215.686 126.825 216.294 126.513 217.005C126.202 217.716 126.12 218.499 126.279 219.254C126.438 220.009 126.83 220.702 127.405 221.247C127.98 221.791 128.714 222.162 129.512 222.312C130.31 222.462 131.137 222.385 131.889 222.09C132.641 221.796 133.283 221.297 133.735 220.657C134.187 220.017 134.429 219.264 134.429 218.494C134.427 217.463 133.994 216.473 133.222 215.744C132.451 215.014 131.405 214.603 130.314 214.602V214.602Z" fill="white"/>
<path d="M203.549 277.395C202.627 277.395 201.725 277.136 200.959 276.652C200.192 276.167 199.594 275.478 199.241 274.672C198.888 273.866 198.796 272.979 198.976 272.123C199.156 271.268 199.6 270.482 200.252 269.865C200.904 269.248 201.735 268.828 202.639 268.658C203.544 268.487 204.482 268.575 205.334 268.909C206.186 269.243 206.914 269.808 207.426 270.533C207.939 271.259 208.212 272.112 208.212 272.984C208.211 274.153 207.719 275.275 206.845 276.102C205.971 276.929 204.785 277.394 203.549 277.395V277.395ZM203.549 269.092C202.735 269.092 201.94 269.32 201.263 269.748C200.587 270.175 200.059 270.783 199.748 271.494C199.437 272.206 199.355 272.988 199.514 273.743C199.673 274.498 200.064 275.192 200.64 275.736C201.215 276.28 201.948 276.651 202.746 276.801C203.545 276.951 204.372 276.874 205.124 276.58C205.875 276.285 206.518 275.786 206.97 275.146C207.422 274.506 207.663 273.754 207.663 272.984C207.662 271.952 207.228 270.963 206.457 270.233C205.686 269.503 204.64 269.093 203.549 269.092V269.092Z" fill="white"/>
<path d="M203.549 307.494C205.973 307.494 207.937 305.635 207.937 303.343C207.937 301.05 205.973 299.191 203.549 299.191C201.125 299.191 199.16 301.05 199.16 303.343C199.16 305.635 201.125 307.494 203.549 307.494Z" fill="#FFCC00"/>
<path d="M130.314 307.754C129.392 307.754 128.491 307.495 127.724 307.01C126.957 306.525 126.359 305.837 126.006 305.03C125.653 304.224 125.561 303.338 125.741 302.482C125.921 301.626 126.365 300.84 127.017 300.223C127.669 299.606 128.5 299.186 129.405 299.016C130.309 298.846 131.247 298.933 132.099 299.267C132.951 299.601 133.679 300.166 134.191 300.892C134.704 301.617 134.977 302.47 134.977 303.342C134.976 304.512 134.484 305.633 133.61 306.46C132.736 307.287 131.551 307.752 130.314 307.754V307.754ZM130.314 299.45C129.501 299.45 128.705 299.679 128.028 300.106C127.352 300.534 126.825 301.142 126.513 301.853C126.202 302.564 126.12 303.347 126.279 304.102C126.438 304.857 126.83 305.55 127.405 306.095C127.98 306.639 128.714 307.01 129.512 307.16C130.31 307.31 131.137 307.233 131.889 306.938C132.641 306.644 133.283 306.145 133.735 305.505C134.187 304.865 134.429 304.112 134.429 303.342C134.427 302.311 133.994 301.321 133.222 300.592C132.451 299.862 131.405 299.451 130.314 299.45V299.45Z" fill="white"/>
<path d="M184.623 274.8C183.701 274.8 182.8 274.542 182.033 274.057C181.266 273.572 180.668 272.883 180.315 272.077C179.962 271.271 179.87 270.384 180.05 269.529C180.23 268.673 180.674 267.887 181.326 267.27C181.978 266.653 182.809 266.233 183.714 266.063C184.618 265.893 185.556 265.98 186.408 266.314C187.26 266.648 187.988 267.213 188.5 267.939C189.013 268.664 189.286 269.517 189.286 270.389C189.285 271.559 188.793 272.68 187.919 273.507C187.045 274.334 185.86 274.799 184.623 274.8V274.8ZM184.623 266.497C183.81 266.497 183.014 266.725 182.338 267.153C181.661 267.581 181.134 268.189 180.822 268.9C180.511 269.611 180.429 270.394 180.588 271.149C180.747 271.904 181.139 272.597 181.714 273.141C182.289 273.686 183.023 274.056 183.821 274.207C184.619 274.357 185.446 274.28 186.198 273.985C186.95 273.69 187.592 273.192 188.044 272.552C188.496 271.911 188.738 271.159 188.738 270.389C188.736 269.357 188.303 268.368 187.531 267.638C186.76 266.909 185.714 266.498 184.623 266.497V266.497Z" fill="white"/>
<path d="M57.079 264.162C55.994 264.162 54.9334 264.466 54.0313 265.036C53.1292 265.607 52.426 266.417 52.0108 267.365C51.5956 268.314 51.487 269.357 51.6987 270.364C51.9103 271.37 52.4328 272.295 53.2 273.021C53.9672 273.747 54.9447 274.241 56.0088 274.441C57.0729 274.641 58.1759 274.539 59.1783 274.146C60.1807 273.753 61.0375 273.088 61.6403 272.234C62.2431 271.381 62.5648 270.378 62.5648 269.351C62.5605 267.976 61.9812 266.659 60.9534 265.686C59.9255 264.714 58.5326 264.166 57.079 264.162V264.162ZM57.079 265.719C57.4045 265.719 57.7227 265.81 57.9934 265.981C58.264 266.152 58.4749 266.395 58.5995 266.68C58.724 266.964 58.7566 267.277 58.6931 267.579C58.6296 267.881 58.4729 268.159 58.2427 268.376C58.0126 268.594 57.7193 268.742 57.4001 268.802C57.0809 268.863 56.75 268.832 56.4492 268.714C56.1485 268.596 55.8915 268.397 55.7107 268.14C55.5298 267.884 55.4333 267.583 55.4333 267.276C55.4348 266.863 55.6086 266.468 55.9169 266.176C56.2252 265.885 56.643 265.72 57.079 265.719V265.719ZM57.079 273.214C56.4289 273.211 55.7893 273.058 55.2157 272.768C54.6422 272.479 54.1519 272.061 53.7876 271.552C53.8139 270.514 55.9819 269.943 57.079 269.943C58.1762 269.943 60.3441 270.514 60.3705 271.552C60.0057 272.061 59.5154 272.478 58.9419 272.768C58.3684 273.057 57.729 273.21 57.079 273.214V273.214Z" fill="white"/>
<path d="M76.0048 193.325C74.9198 193.325 73.8592 193.63 72.9571 194.2C72.055 194.77 71.3518 195.581 70.9366 196.529C70.5214 197.477 70.4128 198.521 70.6245 199.527C70.8361 200.534 71.3586 201.459 72.1258 202.184C72.893 202.91 73.8705 203.404 74.9346 203.605C75.9987 203.805 77.1017 203.702 78.1041 203.309C79.1065 202.917 79.9633 202.251 80.5661 201.398C81.1688 200.545 81.4906 199.541 81.4906 198.515C81.4863 197.14 80.907 195.822 79.8791 194.85C78.8513 193.878 77.4584 193.329 76.0048 193.325V193.325ZM76.0048 194.882C76.3303 194.882 76.6485 194.974 76.9191 195.145C77.1898 195.316 77.4007 195.559 77.5253 195.843C77.6498 196.128 77.6824 196.441 77.6189 196.743C77.5554 197.045 77.3987 197.322 77.1685 197.54C76.9384 197.758 76.6451 197.906 76.3259 197.966C76.0066 198.026 75.6757 197.995 75.375 197.877C75.0743 197.76 74.8173 197.56 74.6364 197.304C74.4556 197.048 74.3591 196.747 74.3591 196.439C74.3605 196.027 74.5344 195.631 74.8427 195.34C75.151 195.048 75.5688 194.884 76.0048 194.882V194.882ZM76.0048 202.377C75.3547 202.374 74.7151 202.221 74.1415 201.932C73.568 201.642 73.0777 201.225 72.7134 200.715C72.7397 199.678 74.9077 199.106 76.0048 199.106C77.102 199.106 79.2699 199.678 79.2963 200.715C78.9315 201.224 78.4412 201.642 77.8677 201.931C77.2942 202.221 76.6548 202.374 76.0048 202.377V202.377Z" fill="white"/>
<path d="M179.412 175.422C178.327 175.422 177.266 175.726 176.364 176.296C175.462 176.867 174.759 177.677 174.343 178.625C173.928 179.574 173.82 180.617 174.031 181.624C174.243 182.63 174.765 183.555 175.533 184.281C176.3 185.007 177.277 185.501 178.341 185.701C179.405 185.901 180.508 185.798 181.511 185.406C182.513 185.013 183.37 184.348 183.973 183.494C184.576 182.641 184.897 181.638 184.897 180.611C184.893 179.236 184.314 177.919 183.286 176.946C182.258 175.974 180.865 175.426 179.412 175.422V175.422ZM179.412 176.979C179.737 176.979 180.055 177.07 180.326 177.241C180.596 177.412 180.807 177.655 180.932 177.94C181.057 178.224 181.089 178.537 181.026 178.839C180.962 179.141 180.805 179.419 180.575 179.636C180.345 179.854 180.052 180.002 179.733 180.062C179.413 180.122 179.082 180.092 178.782 179.974C178.481 179.856 178.224 179.656 178.043 179.4C177.862 179.144 177.766 178.843 177.766 178.535C177.767 178.123 177.941 177.728 178.249 177.436C178.558 177.144 178.976 176.98 179.412 176.979V176.979ZM179.412 184.473C178.761 184.471 178.122 184.318 177.548 184.028C176.975 183.739 176.484 183.321 176.12 182.812C176.146 181.774 178.314 181.203 179.412 181.203C180.509 181.203 182.677 181.774 182.703 182.812C182.338 183.321 181.848 183.738 181.274 184.028C180.701 184.317 180.062 184.47 179.412 184.473Z" fill="white"/>
<path d="M242.498 232.247C241.413 232.247 240.352 232.551 239.45 233.121C238.548 233.691 237.845 234.502 237.43 235.45C237.015 236.398 236.906 237.442 237.118 238.448C237.329 239.455 237.852 240.38 238.619 241.106C239.386 241.831 240.364 242.326 241.428 242.526C242.492 242.726 243.595 242.623 244.597 242.231C245.6 241.838 246.456 241.173 247.059 240.319C247.662 239.466 247.984 238.462 247.984 237.436C247.979 236.061 247.4 234.743 246.372 233.771C245.344 232.799 243.952 232.251 242.498 232.247ZM242.498 233.803C242.823 233.803 243.142 233.895 243.412 234.066C243.683 234.237 243.894 234.48 244.018 234.764C244.143 235.049 244.176 235.362 244.112 235.664C244.049 235.966 243.892 236.243 243.662 236.461C243.432 236.679 243.138 236.827 242.819 236.887C242.5 236.947 242.169 236.916 241.868 236.799C241.567 236.681 241.31 236.481 241.13 236.225C240.949 235.969 240.852 235.668 240.852 235.36C240.854 234.948 241.028 234.553 241.336 234.261C241.644 233.969 242.062 233.805 242.498 233.803ZM242.498 241.298C241.848 241.295 241.208 241.143 240.635 240.853C240.061 240.564 239.571 240.146 239.207 239.637C239.233 238.599 241.401 238.027 242.498 238.027C243.595 238.027 245.763 238.599 245.789 239.637C245.425 240.146 244.934 240.563 244.361 240.852C243.787 241.142 243.148 241.295 242.498 241.298V241.298Z" fill="white"/>
<path d="M252.921 267.276C251.836 267.276 250.775 267.58 249.873 268.15C248.971 268.72 248.268 269.531 247.853 270.479C247.437 271.427 247.329 272.471 247.54 273.477C247.752 274.484 248.275 275.409 249.042 276.135C249.809 276.86 250.786 277.355 251.851 277.555C252.915 277.755 254.018 277.652 255.02 277.259C256.023 276.867 256.879 276.202 257.482 275.348C258.085 274.495 258.407 273.491 258.407 272.465C258.402 271.09 257.823 269.772 256.795 268.8C255.767 267.828 254.374 267.28 252.921 267.276V267.276ZM252.921 268.832C253.246 268.832 253.565 268.924 253.835 269.095C254.106 269.266 254.317 269.509 254.441 269.793C254.566 270.078 254.598 270.391 254.535 270.693C254.471 270.995 254.315 271.272 254.085 271.49C253.854 271.708 253.561 271.856 253.242 271.916C252.923 271.976 252.592 271.945 252.291 271.828C251.99 271.71 251.733 271.51 251.552 271.254C251.372 270.998 251.275 270.697 251.275 270.389C251.277 269.977 251.45 269.582 251.759 269.29C252.067 268.998 252.485 268.834 252.921 268.832V268.832ZM252.921 276.327C252.271 276.324 251.631 276.172 251.058 275.882C250.484 275.592 249.994 275.175 249.629 274.666C249.656 273.628 251.824 273.056 252.921 273.056C254.018 273.056 256.186 273.628 256.212 274.666C255.848 275.174 255.357 275.592 254.784 275.881C254.21 276.171 253.571 276.324 252.921 276.327V276.327Z" fill="white"/>
<path d="M130.665 267.189L130.103 269.321C130.74 269.471 132.704 270.084 133.022 268.877C133.353 267.62 131.302 267.339 130.665 267.189Z" fill="#FFCC00"/>
<path d="M129.819 270.396L129.199 272.747C129.964 272.926 132.324 273.643 132.673 272.317C133.037 270.935 130.584 270.577 129.819 270.396Z" fill="#FFCC00"/>
<path d="M133.205 260.844C131.231 260.378 129.156 260.477 127.242 261.127C125.328 261.777 123.66 262.95 122.45 264.496C121.24 266.043 120.543 267.894 120.445 269.816C120.347 271.738 120.854 273.644 121.902 275.293C122.949 276.943 124.49 278.261 126.33 279.082C128.169 279.903 130.225 280.189 132.237 279.905C134.248 279.62 136.126 278.778 137.631 277.484C139.137 276.191 140.203 274.504 140.695 272.637C141.022 271.397 141.088 270.109 140.888 268.845C140.689 267.582 140.228 266.368 139.533 265.273C138.837 264.177 137.92 263.223 136.834 262.463C135.749 261.703 134.515 261.153 133.205 260.844V260.844ZM135.252 268.897C135.103 269.845 134.548 270.304 133.811 270.464C134.823 270.963 135.338 271.728 134.847 273.054C134.238 274.7 132.791 274.839 130.867 274.495L130.4 276.265L129.271 275.999L129.732 274.252C129.431 274.182 129.131 274.108 128.832 274.032L128.37 275.787L127.243 275.521L127.71 273.747C127.446 273.683 127.179 273.615 126.905 273.55L125.437 273.204L125.997 271.982C125.997 271.982 126.829 272.191 126.817 272.176C126.869 272.191 126.923 272.197 126.977 272.193C127.031 272.189 127.084 272.174 127.132 272.151C127.18 272.127 127.222 272.095 127.257 272.055C127.292 272.016 127.318 271.971 127.334 271.922L128.072 269.123C128.114 269.133 128.154 269.142 128.191 269.151C128.153 269.137 128.114 269.125 128.074 269.115L128.601 267.117C128.616 266.969 128.57 266.821 128.472 266.705C128.373 266.589 128.231 266.514 128.075 266.497C128.093 266.485 127.255 266.304 127.255 266.304L127.556 265.163L129.112 265.531L129.111 265.537C129.345 265.592 129.586 265.644 129.832 265.697L130.294 263.943L131.422 264.209L130.969 265.928C131.272 265.994 131.576 266.06 131.873 266.129L132.323 264.422L133.452 264.688L132.99 266.442C134.414 266.906 135.456 267.602 135.252 268.897V268.897Z" fill="#FFCC00"/>
</g>
<defs>
<clipPath id="clip0_108_3413">
<rect width="1200" height="300" fill="white"/>
</clipPath>
</defs>
</svg>
